<svg width="24" height="24" viewBox="0 0 24 24" fill="none" xmlns="http://www.w3.org/2000/svg">
<g id="Icon / Close">
<path id="Vector" d="M17.8682 6.7682C18.0439 6.59246 18.0439 6.30754 17.8682 6.1318C17.6925 5.95607 17.4075 5.95607 17.2318 6.1318L12 11.3636L6.7682 6.1318C6.59246 5.95607 6.30754 5.95607 6.1318 6.1318C5.95607 6.30754 5.95607 6.59246 6.1318 6.7682L11.3636 12L6.1318 17.2318C5.95607 17.4075 5.95607 17.6925 6.1318 17.8682C6.30754 18.0439 6.59246 18.0439 6.7682 17.8682L12 12.6364L17.2318 17.8682C17.4075 18.0439 17.6925 18.0439 17.8682 17.8682C18.0439 17.6925 18.0439 17.4075 17.8682 17.2318L12.6364 12L17.8682 6.7682Z" fill="white"/>
</g>
</svg>
