<svg width="20" height="20" viewBox="0 0 20 20" fill="none" xmlns="http://www.w3.org/2000/svg">
<g id="business.finanzas.currency.dollar.circle.48">
<g id="Vector">
<path d="M12.0549 6.29202H10.6244V5.37534C10.6244 5.03016 10.3445 4.75034 9.99936 4.75034C9.65418 4.75034 9.37436 5.03016 9.37436 5.37534V6.29202H9.19305C8.94752 6.27587 8.70123 6.31131 8.47006 6.39618C8.23001 6.4843 8.01201 6.6236 7.83119 6.80442C7.65038 6.98523 7.51108 7.20323 7.42295 7.44328C7.33763 7.6757 7.30227 7.9234 7.31906 8.17024C7.33183 8.81251 7.80256 9.28743 8.19639 9.60161C8.62309 9.94202 9.17685 10.2595 9.67552 10.5454L9.68849 10.5528C10.2154 10.8549 10.684 11.1244 11.0254 11.3938C11.4007 11.6898 11.4298 11.8392 11.4298 11.8572L11.43 11.8679C11.4313 11.9459 11.417 12.0233 11.3878 12.0956C11.3585 12.1679 11.3151 12.2336 11.2599 12.2887C11.2048 12.3438 11.1391 12.3873 11.0668 12.4165C10.9946 12.4457 10.9171 12.46 10.8392 12.4587H10.0036L9.99936 12.4587L9.99509 12.4587H7.9438C7.59862 12.4587 7.3188 12.7385 7.3188 13.0837C7.3188 13.4289 7.59862 13.7087 7.9438 13.7087H9.37436V14.6253C9.37436 14.9705 9.65418 15.2503 9.99936 15.2503C10.3445 15.2503 10.6244 14.9705 10.6244 14.6253V13.7087H10.8236C11.0673 13.7121 11.3093 13.6668 11.5353 13.5755C11.7631 13.4834 11.9701 13.3464 12.1438 13.1726C12.3176 12.9988 12.4546 12.7919 12.5467 12.564C12.6381 12.3378 12.6834 12.0955 12.6799 11.8515C12.6771 11.201 12.1941 10.7235 11.7996 10.4124C11.3814 10.0824 10.8399 9.77202 10.3491 9.4907L10.3102 9.46842C9.78445 9.16698 9.31636 8.89605 8.97593 8.62446C8.60436 8.32803 8.5688 8.17284 8.5688 8.1435C8.5688 8.12647 8.5681 8.10944 8.56671 8.09246C8.56064 8.01837 8.57077 7.94384 8.59639 7.87404C8.62201 7.80425 8.66251 7.74087 8.71508 7.6883C8.76765 7.63573 8.83103 7.59523 8.90082 7.56961C8.97062 7.54399 9.04515 7.53386 9.11924 7.53993C9.13622 7.54132 9.15325 7.54202 9.17028 7.54202H12.0549C12.4001 7.54202 12.6799 7.26219 12.6799 6.91702C12.6799 6.57184 12.4001 6.29202 12.0549 6.29202Z" fill="white"/>
<path fill-rule="evenodd" clip-rule="evenodd" d="M9.99935 1.66699C5.39698 1.66699 1.66602 5.39795 1.66602 10.0003C1.66602 14.6027 5.39698 18.3337 9.99935 18.3337C14.6017 18.3337 18.3327 14.6027 18.3327 10.0003C18.3327 5.39795 14.6017 1.66699 9.99935 1.66699ZM2.91602 10.0003C2.91602 6.08831 6.08733 2.91699 9.99935 2.91699C13.9114 2.91699 17.0827 6.08831 17.0827 10.0003C17.0827 13.9123 13.9114 17.0837 9.99935 17.0837C6.08733 17.0837 2.91602 13.9123 2.91602 10.0003Z" fill="white"/>
</g>
</g>
</svg>
