<svg width="20" height="20" viewBox="0 0 20 20" fill="none" xmlns="http://www.w3.org/2000/svg">
<g id="business.objetos.scissors.2.81">
<path id="Vector" fill-rule="evenodd" clip-rule="evenodd" d="M4.86046 2.91699C3.78657 2.91699 2.91602 3.78755 2.91602 4.86144C2.91602 5.61977 3.35012 6.27671 3.98339 6.59731C4.0081 6.60727 4.03244 6.61892 4.05624 6.6323C4.30134 6.74378 4.57365 6.80588 4.86046 6.80588C5.93435 6.80588 6.8049 5.93532 6.8049 4.86144C6.8049 3.78755 5.93435 2.91699 4.86046 2.91699ZM6.03453 7.83322C7.21784 7.36534 8.0549 6.21114 8.0549 4.86144C8.0549 3.09719 6.6247 1.66699 4.86046 1.66699C3.09622 1.66699 1.66602 3.09719 1.66602 4.86144C1.66602 6.12698 2.40194 7.22063 3.46918 7.7378L7.1908 9.99782L3.42616 12.2821C3.42061 12.2855 3.41512 12.2889 3.40971 12.2924C2.3747 12.8209 1.66602 13.8973 1.66602 15.1392C1.66602 16.9035 3.09622 18.3337 4.86046 18.3337C6.6247 18.3337 8.0549 16.9035 8.0549 15.1392C8.0549 13.7873 7.21506 12.6315 6.02863 12.1651L8.39514 10.7292L17.3832 16.1873C17.6782 16.3665 18.0626 16.2725 18.2418 15.9775C18.421 15.6825 18.327 15.298 18.032 15.1189L9.59974 9.99825L18.0318 4.88188C18.3269 4.70282 18.421 4.31843 18.2419 4.02333C18.0629 3.72823 17.6785 3.63416 17.3834 3.81322L8.3954 9.2669L6.03453 7.83322ZM4.86046 13.1948C3.78657 13.1948 2.91602 14.0653 2.91602 15.1392C2.91602 16.2131 3.78657 17.0837 4.86046 17.0837C5.93435 17.0837 6.8049 16.2131 6.8049 15.1392C6.8049 14.0653 5.93435 13.1948 4.86046 13.1948Z" fill="white"/>
</g>
</svg>
