<svg width="20" height="20" viewBox="0 0 20 20" fill="none" xmlns="http://www.w3.org/2000/svg">
<g id="business.objetos.calendar.3.14">
<path id="Vector" fill-rule="evenodd" clip-rule="evenodd" d="M6.40213 1.66699C6.7473 1.66699 7.02713 1.94681 7.02713 2.29199V3.72255H12.9716V2.29199C12.9716 1.94681 13.2514 1.66699 13.5966 1.66699C13.9417 1.66699 14.2216 1.94681 14.2216 2.29199V3.72255H16.6799C17.5927 3.72255 18.3327 4.46251 18.3327 5.37533V16.6809C18.3327 17.5937 17.5927 18.3337 16.6799 18.3337H3.31879C2.40598 18.3337 1.66602 17.5937 1.66602 16.6809V5.37533C1.66602 4.46252 2.40599 3.72255 3.31879 3.72255H5.77713V2.29199C5.77713 1.94681 6.05695 1.66699 6.40213 1.66699ZM5.77713 4.97255H3.31879C3.09634 4.97255 2.91602 5.15288 2.91602 5.37533V7.83366H17.0827V5.37533C17.0827 5.15288 16.9023 4.97255 16.6799 4.97255H14.2216V5.88921C14.2216 6.23439 13.9417 6.51421 13.5966 6.51421C13.2514 6.51421 12.9716 6.23439 12.9716 5.88921V4.97255H7.02713V5.88921C7.02713 6.23439 6.7473 6.51421 6.40213 6.51421C6.05695 6.51421 5.77713 6.23439 5.77713 5.88921V4.97255ZM17.0827 9.08366H2.91602V16.6809C2.91602 16.9033 3.09635 17.0837 3.31879 17.0837H16.6799C16.9023 17.0837 17.0827 16.9033 17.0827 16.6809V9.08366ZM4.74935 11.285C4.74935 10.798 5.1442 10.4031 5.63129 10.4031C6.11839 10.4031 6.51324 10.798 6.51324 11.285C6.51324 11.7721 6.11839 12.167 5.63129 12.167C5.1442 12.167 4.74935 11.7721 4.74935 11.285ZM9.1174 11.285C9.1174 10.798 9.51227 10.4031 9.99935 10.4031C10.4864 10.4031 10.8813 10.798 10.8813 11.285C10.8813 11.7721 10.4864 12.167 9.99935 12.167C9.51227 12.167 9.1174 11.7721 9.1174 11.285ZM13.4855 11.285C13.4855 10.798 13.8803 10.4031 14.3674 10.4031C14.8543 10.4031 15.2494 10.7978 15.2494 11.2851C15.2494 11.7723 14.8543 12.167 14.3674 12.167C13.8803 12.167 13.4855 11.7721 13.4855 11.285ZM4.74935 14.8823C4.74935 14.3952 5.1442 14.0003 5.63129 14.0003C6.11839 14.0003 6.51324 14.3952 6.51324 14.8823C6.51324 15.3693 6.11839 15.7642 5.63129 15.7642C5.1442 15.7642 4.74935 15.3693 4.74935 14.8823ZM9.1174 14.8823C9.1174 14.3952 9.51227 14.0003 9.99935 14.0003C10.4866 14.0003 10.8812 14.3954 10.8812 14.8823C10.8812 15.3692 10.4866 15.7642 9.99935 15.7642C9.51227 15.7642 9.1174 15.3693 9.1174 14.8823ZM13.4855 14.8823C13.4855 14.3952 13.8803 14.0003 14.3674 14.0003C14.8543 14.0003 15.2494 14.395 15.2494 14.8823C15.2494 15.3695 14.8543 15.7642 14.3674 15.7642C13.8803 15.7642 13.4855 15.3693 13.4855 14.8823Z" fill="white"/>
</g>
</svg>
