<svg width="25" height="24" viewBox="0 0 25 24" fill="none" xmlns="http://www.w3.org/2000/svg">
<path d="M14.9667 7.55003H13.25V6.45001C13.25 6.0358 12.9142 5.70001 12.5 5.70001C12.0858 5.70001 11.75 6.0358 11.75 6.45001V7.55003H11.5324C11.2378 7.53065 10.9423 7.57318 10.6648 7.67502C10.3768 7.78077 10.1152 7.94793 9.89821 8.16491C9.68124 8.38189 9.51407 8.64348 9.40833 8.93154C9.30594 9.21045 9.26351 9.50769 9.28365 9.80389C9.29897 10.5746 9.86386 11.1445 10.3364 11.5215C10.8485 11.93 11.513 12.311 12.1114 12.6541L12.127 12.663C12.7592 13.0255 13.3216 13.3489 13.7313 13.6721C14.1816 14.0274 14.2166 14.2066 14.2166 14.2283L14.2168 14.2411C14.2184 14.3347 14.2011 14.4276 14.1661 14.5144C14.131 14.6011 14.0789 14.6799 14.0127 14.7461C13.9465 14.8122 13.8677 14.8644 13.781 14.8994C13.6943 14.9345 13.6013 14.9516 13.5078 14.95H12.5051L12.5 14.95L12.4949 14.95H10.0333C9.61912 14.95 9.28334 15.2858 9.28334 15.7C9.28334 16.1142 9.61912 16.45 10.0333 16.45H11.75V17.55C11.75 17.9642 12.0858 18.3 12.5 18.3C12.9142 18.3 13.25 17.9642 13.25 17.55V16.45H13.4891C13.7815 16.4541 14.0719 16.3998 14.3431 16.2902C14.6165 16.1796 14.8648 16.0152 15.0734 15.8067C15.2819 15.5982 15.4463 15.3498 15.5568 15.0764C15.6665 14.8049 15.7209 14.5142 15.7167 14.2214C15.7133 13.4408 15.1337 12.8679 14.6604 12.4945C14.1584 12.0985 13.5086 11.726 12.9197 11.3885L12.873 11.3617C12.2421 11 11.6804 10.6749 11.2719 10.349C10.826 9.99325 10.7833 9.80701 10.7833 9.77181C10.7833 9.75137 10.7825 9.73094 10.7808 9.71057C10.7735 9.62165 10.7857 9.53221 10.8164 9.44846C10.8472 9.36471 10.8958 9.28865 10.9589 9.22557C11.022 9.16248 11.098 9.11388 11.1818 9.08314C11.2655 9.05239 11.355 9.04024 11.4439 9.04752C11.4642 9.04919 11.4847 9.05003 11.5051 9.05003H14.9667C15.3809 9.05003 15.7167 8.71424 15.7167 8.30003C15.7167 7.88582 15.3809 7.55003 14.9667 7.55003Z" fill="#006FB9"/>
<path fill-rule="evenodd" clip-rule="evenodd" d="M12.5 2C6.97715 2 2.5 6.47715 2.5 12C2.5 17.5228 6.97715 22 12.5 22C18.0228 22 22.5 17.5228 22.5 12C22.5 6.47715 18.0228 2 12.5 2ZM4 12C4 7.30558 7.80558 3.5 12.5 3.5C17.1944 3.5 21 7.30558 21 12C21 16.6944 17.1944 20.5 12.5 20.5C7.80558 20.5 4 16.6944 4 12Z" fill="#006FB9"/>
</svg>
