<svg width="20" height="20" viewBox="0 0 20 20" fill="none" xmlns="http://www.w3.org/2000/svg">
<g id="business.objetos.monetization.browser.bag.36">
<g id="Vector">
<path d="M15.0858 8.83088L15.9908 7.28338C16.08 7.13005 16.1275 6.95588 16.1275 6.78005C16.1275 6.60421 16.08 6.42921 15.9891 6.27421C15.9 6.12171 15.77 5.99588 15.6133 5.90755C15.4616 5.82338 15.2908 5.77921 15.1175 5.77921H11.0491C10.8766 5.77921 10.7058 5.82338 10.5508 5.90921C10.3991 5.99505 10.2716 6.11838 10.1758 6.27671C10.0858 6.43005 10.0383 6.60421 10.0383 6.78005C10.0383 6.95588 10.0858 7.13088 10.175 7.28338L11.0616 8.80088C9.98996 9.38171 7.83246 10.7292 7.83246 13.5634C7.83246 16.2384 10.11 18.3334 13.0175 18.3334C15.9483 18.3334 18.3316 16.1942 18.3316 13.5634C18.3316 10.7725 16.1741 9.46755 15.0858 8.83088ZM13.0191 17.0825C10.8125 17.0825 9.08413 15.5367 9.08413 13.5625C9.08413 11.2542 10.9733 10.2592 11.8816 9.78005C12.0433 9.69505 12.175 9.62422 12.2641 9.56755C12.5475 9.38671 12.6366 9.01505 12.4675 8.72505L11.475 7.02838H14.6916L13.6991 8.72588C13.54 8.99921 13.6091 9.34922 13.8616 9.54005C13.985 9.63338 14.1733 9.74588 14.4025 9.88005C15.4041 10.4659 17.0825 11.445 17.0833 13.5634C17.0833 15.5034 15.26 17.0825 13.0191 17.0825Z" fill="#006FB9"/>
<path d="M5.88829 12.4575H3.06329C3.01413 12.4459 2.98746 12.4417 2.96079 12.4159C2.93329 12.3875 2.91663 12.35 2.91663 12.3159V5.48671H9.48496C9.82996 5.48671 10.11 5.20671 10.11 4.86171C10.11 4.51671 9.82996 4.23671 9.48496 4.23671H2.91663V3.05921C2.91663 3.02171 2.93246 2.98588 2.95913 2.95838C2.98579 2.93088 3.01079 2.93088 3.06246 2.91755H14.365C14.4033 2.91755 14.4425 2.93338 14.4683 2.95921C14.4966 2.98755 14.5125 3.02505 14.5133 3.05838V4.34755C14.5133 4.69255 14.7933 4.97255 15.1383 4.97255C15.4833 4.97255 15.7633 4.69255 15.7633 4.34755V3.05088C15.7591 2.68005 15.6116 2.33255 15.3466 2.07005C15.0833 1.81005 14.735 1.66755 14.3683 1.66755C14.3666 1.66755 14.3641 1.66755 14.3625 1.66755H3.06496C2.69163 1.65421 2.34413 1.80838 2.08079 2.07005C1.81663 2.33088 1.66913 2.67838 1.66663 3.05421V12.3209C1.66913 12.6925 1.81663 13.0409 2.08246 13.305C2.34579 13.565 2.69413 13.7075 3.06079 13.7075C3.06246 13.7075 3.06413 13.7075 3.06663 13.7075H5.88913C6.23413 13.7075 6.51413 13.4275 6.51413 13.0825C6.51413 12.7375 6.23329 12.4575 5.88829 12.4575Z" fill="#006FB9"/>
<path d="M13.0825 12.715C12.6016 12.715 12.295 12.4567 12.295 12.28C12.295 12.1034 12.6016 11.845 13.1083 11.8442C13.25 11.8434 13.3958 11.8684 13.5266 11.9309C13.6566 11.9917 13.7716 12.085 13.8583 12.1984C14.0666 12.4725 14.4583 12.5267 14.7341 12.3175C15.0091 12.1084 15.0625 11.7159 14.8533 11.4417C14.645 11.1684 14.3708 10.9459 14.0608 10.8C13.9475 10.7467 13.8283 10.7117 13.7083 10.6784V10.5159C13.7083 10.1709 13.4283 9.89088 13.0833 9.89088C12.7383 9.89088 12.4583 10.1709 12.4583 10.5159V10.6842C11.6208 10.9025 11.0458 11.515 11.0458 12.2809C11.0458 13.2259 11.9408 13.9659 13.0833 13.9659C13.5641 13.9659 13.8708 14.2234 13.8708 14.4C13.8708 14.5767 13.5641 14.835 13.0575 14.8359C12.9216 14.8334 12.77 14.8117 12.6383 14.75C12.5091 14.6892 12.3941 14.5959 12.3083 14.4825C12.1 14.2084 11.7091 14.1525 11.4325 14.3617C11.1575 14.57 11.1033 14.9625 11.3116 15.2375C11.52 15.5125 11.795 15.7359 12.1066 15.8809C12.2191 15.9334 12.3383 15.9684 12.4575 16.0017V16.1659C12.4575 16.5109 12.7375 16.7909 13.0825 16.7909C13.4275 16.7909 13.7075 16.5109 13.7075 16.1659V15.9867C14.5375 15.7617 15.12 15.1625 15.12 14.3992C15.1208 13.455 14.225 12.715 13.0825 12.715Z" fill="#006FB9"/>
</g>
</g>
</svg>
