<svg width="56" height="56" viewBox="0 0 56 56" fill="none" xmlns="http://www.w3.org/2000/svg">
<rect width="56" height="56" rx="28" fill="#006FB9"/>
<path fill-rule="evenodd" clip-rule="evenodd" d="M28.1583 22.4088C27.7368 22.3796 27.3155 22.4669 26.9402 22.6611C26.565 22.8552 26.2504 23.1488 26.0308 23.5097C25.8111 23.8706 25.6949 24.2849 25.6948 24.7074C25.6947 25.2528 25.2524 25.6949 24.707 25.6948C24.1615 25.6947 23.7194 25.2524 23.7195 24.707C23.7197 23.9224 23.9355 23.1529 24.3434 22.4827C24.7513 21.8125 25.3356 21.2673 26.0324 20.9067C26.7293 20.5461 27.5118 20.384 28.2946 20.4382C29.0773 20.4923 29.8301 20.7605 30.4706 21.2136C31.1112 21.6666 31.6149 22.287 31.9267 23.007C32.2385 23.727 32.3464 24.5188 32.2386 25.296C32.1307 26.0731 31.8114 26.8057 31.3153 27.4136C30.8193 28.0215 30.1657 28.4813 29.426 28.7429C29.2975 28.7883 29.1863 28.8724 29.1077 28.9836C29.0291 29.0949 28.9869 29.2278 28.987 29.364V30.4685C28.987 31.014 28.5448 31.4561 27.9993 31.4561C27.4539 31.4561 27.0117 31.014 27.0117 30.4685V29.365C27.0115 28.8203 27.1802 28.2884 27.4946 27.8436C27.8091 27.3986 28.2538 27.0622 28.7675 26.8805C29.1658 26.7397 29.5178 26.4921 29.7849 26.1648C30.052 25.8374 30.2239 25.443 30.282 25.0245C30.3401 24.606 30.282 24.1797 30.1141 23.792C29.9462 23.4043 29.675 23.0702 29.33 22.8263C28.9851 22.5823 28.5798 22.4379 28.1583 22.4088Z" fill="white"/>
<path fill-rule="evenodd" clip-rule="evenodd" d="M18.5713 18.5713C21.0717 16.0708 24.4631 14.666 27.9993 14.666C31.5356 14.666 34.927 16.0708 37.4274 18.5713C39.9279 21.0717 41.3327 24.4631 41.3327 27.9993C41.3327 31.5356 39.9279 34.927 37.4274 37.4274C34.927 39.9279 31.5356 41.3327 27.9993 41.3327C24.4631 41.3327 21.0717 39.9279 18.5713 37.4274C16.0708 34.927 14.666 31.5356 14.666 27.9993C14.666 24.4631 16.0708 21.0717 18.5713 18.5713ZM27.9993 16.6413C24.987 16.6413 22.0981 17.838 19.968 19.968C17.838 22.0981 16.6413 24.987 16.6413 27.9993C16.6413 31.0117 17.838 33.9006 19.968 36.0307C22.0981 38.1607 24.987 39.3574 27.9993 39.3574C31.0117 39.3574 33.9006 38.1607 36.0307 36.0307C38.1607 33.9006 39.3574 31.0117 39.3574 27.9993C39.3574 24.987 38.1607 22.0981 36.0307 19.968C33.9006 17.838 31.0117 16.6413 27.9993 16.6413Z" fill="white"/>
<path d="M29.3162 34.1887C29.3162 34.9159 28.7266 35.5055 27.9993 35.5055C27.2721 35.5055 26.6825 34.9159 26.6825 34.1887C26.6825 33.4614 27.2721 32.8718 27.9993 32.8718C28.7266 32.8718 29.3162 33.4614 29.3162 34.1887Z" fill="white"/>
</svg>
