<svg width="32" height="33" viewBox="0 0 32 33" fill="none" xmlns="http://www.w3.org/2000/svg">
<path d="M24.1377 14.8962L25.5857 12.4202C25.7283 12.1749 25.8043 11.8962 25.8043 11.6149C25.8043 11.3335 25.7283 11.0535 25.583 10.8055C25.4403 10.5615 25.2323 10.3602 24.9817 10.2189C24.739 10.0842 24.4657 10.0135 24.1883 10.0135H17.679C17.403 10.0135 17.1297 10.0842 16.8817 10.2215C16.639 10.3589 16.435 10.5562 16.2817 10.8095C16.1377 11.0549 16.0617 11.3335 16.0617 11.6149C16.0617 11.8962 16.1377 12.1762 16.2803 12.4202L17.699 14.8482C15.9843 15.7775 12.5323 17.9335 12.5323 22.4682C12.5323 26.7482 16.1763 30.1002 20.8283 30.1002C25.5177 30.1002 29.331 26.6775 29.331 22.4682C29.331 18.0029 25.879 15.9149 24.1377 14.8962ZM20.831 28.0989C17.3003 28.0989 14.535 25.6255 14.535 22.4669C14.535 18.7735 17.5577 17.1815 19.011 16.4149C19.2697 16.2789 19.4803 16.1655 19.623 16.0749C20.0763 15.7855 20.219 15.1909 19.9483 14.7269L18.3603 12.0122H23.507L21.919 14.7282C21.6643 15.1655 21.775 15.7255 22.179 16.0309C22.3763 16.1802 22.6777 16.3602 23.0443 16.5749C24.647 17.5122 27.3323 19.0789 27.3337 22.4682C27.3337 25.5722 24.4163 28.0989 20.831 28.0989Z" fill="#006FB9"/>
<path d="M9.42166 20.6989H4.90166C4.82299 20.6802 4.78033 20.6735 4.73766 20.6322C4.69366 20.5869 4.66699 20.5269 4.66699 20.4722V9.54554H15.1763C15.7283 9.54554 16.1763 9.09754 16.1763 8.54554C16.1763 7.99354 15.7283 7.54554 15.1763 7.54554H4.66699V5.66154C4.66699 5.60154 4.69233 5.54421 4.73499 5.50021C4.77766 5.45621 4.81766 5.45621 4.90033 5.43487H22.9843C23.0457 5.43487 23.1083 5.46021 23.1497 5.50154C23.195 5.54687 23.2203 5.60687 23.2217 5.66021V7.72287C23.2217 8.27487 23.6697 8.72287 24.2217 8.72287C24.7737 8.72287 25.2217 8.27487 25.2217 7.72287V5.64821C25.215 5.05487 24.979 4.49887 24.555 4.07887C24.1337 3.66287 23.5763 3.43487 22.9897 3.43487C22.987 3.43487 22.983 3.43487 22.9803 3.43487H4.90433C4.30699 3.41354 3.75099 3.66021 3.32966 4.07887C2.90699 4.49621 2.67099 5.05221 2.66699 5.65354V20.4802C2.67099 21.0749 2.90699 21.6322 3.33233 22.0549C3.75366 22.4709 4.31099 22.6989 4.89766 22.6989C4.90033 22.6989 4.90299 22.6989 4.90699 22.6989H9.42299C9.97499 22.6989 10.423 22.2509 10.423 21.6989C10.423 21.1469 9.97366 20.6989 9.42166 20.6989Z" fill="#006FB9"/>
<path d="M20.9323 21.1109C20.163 21.1109 19.6723 20.6975 19.6723 20.4149C19.6723 20.1322 20.163 19.7189 20.9737 19.7175C21.2003 19.7162 21.4337 19.7562 21.643 19.8562C21.851 19.9535 22.035 20.1029 22.1737 20.2842C22.507 20.7229 23.1337 20.8095 23.575 20.4749C24.015 20.1402 24.1003 19.5122 23.7657 19.0735C23.4323 18.6362 22.9937 18.2802 22.4977 18.0469C22.3163 17.9615 22.1257 17.9055 21.9337 17.8522V17.5922C21.9337 17.0402 21.4857 16.5922 20.9337 16.5922C20.3817 16.5922 19.9337 17.0402 19.9337 17.5922V17.8615C18.5937 18.2109 17.6737 19.1909 17.6737 20.4162C17.6737 21.9282 19.1057 23.1122 20.9337 23.1122C21.703 23.1122 22.1937 23.5242 22.1937 23.8069C22.1937 24.0895 21.703 24.5029 20.8923 24.5042C20.675 24.5002 20.4323 24.4655 20.2217 24.3669C20.015 24.2695 19.831 24.1202 19.6937 23.9389C19.3603 23.5002 18.735 23.4109 18.2923 23.7455C17.8523 24.0789 17.7657 24.7069 18.099 25.1469C18.4323 25.5869 18.8723 25.9442 19.371 26.1762C19.551 26.2602 19.7417 26.3162 19.9323 26.3695V26.6322C19.9323 27.1842 20.3803 27.6322 20.9323 27.6322C21.4843 27.6322 21.9323 27.1842 21.9323 26.6322V26.3455C23.2603 25.9855 24.1923 25.0269 24.1923 23.8055C24.1937 22.2949 22.7603 21.1109 20.9323 21.1109Z" fill="#006FB9"/>
</svg>
