<svg width="42" height="27" viewBox="0 0 42 27" fill="none" xmlns="http://www.w3.org/2000/svg">
<g clip-path="url(#clip0_1073_6996)">
<path d="M0.603753 15.3299C0.490878 15.3351 0.380103 15.2979 0.294003 15.2249C0.220503 15.1372 0.186378 15.0233 0.199503 14.9099V4.19988C0.186378 4.08648 0.220503 3.97255 0.294003 3.88488C0.381153 3.81873 0.489303 3.78723 0.598503 3.79563H1.764C1.9845 3.77358 2.18295 3.92845 2.2155 4.14738L2.331 4.56738C2.66648 4.24345 3.06285 3.9883 3.4965 3.81663C3.94013 3.63708 4.4142 3.54415 4.893 3.54363C5.84745 3.51213 6.7599 3.93685 7.35 4.68813C7.99995 5.58378 8.32283 6.67525 8.2635 7.78038C8.28135 8.58258 8.12753 9.37901 7.812 10.1166C7.5516 10.7309 7.12845 11.2627 6.58875 11.6549C6.0669 12.0108 5.44583 12.1946 4.81425 12.1799C4.38533 12.182 3.95903 12.1111 3.55425 11.9699C3.18203 11.8449 2.83815 11.6486 2.541 11.3924V14.9204C2.55255 15.0327 2.52105 15.1456 2.45175 15.2354C2.36198 15.3047 2.2491 15.3362 2.13675 15.3246L0.603753 15.3299ZM4.137 10.4159C4.6557 10.4532 5.1576 10.2211 5.46525 9.80163C5.79233 9.21468 5.94038 8.54478 5.8905 7.87488C5.9409 7.19868 5.79495 6.52248 5.4705 5.92713C5.1618 5.50345 4.65465 5.27088 4.13175 5.31288C3.57683 5.3134 3.03293 5.46355 2.55675 5.74863V9.97488C3.02925 10.2689 3.57525 10.4232 4.13175 10.4211L4.137 10.4159Z" fill="#EEEDED"/>
<path d="M10.2585 12.0118C10.0705 12.047 9.88942 11.9231 9.85425 11.7346C9.84637 11.6926 9.84637 11.6495 9.85425 11.6075V4.19978C9.84112 4.08638 9.87525 3.97245 9.94875 3.88478C10.0359 3.81863 10.144 3.78713 10.2532 3.79553H11.4135C11.634 3.77348 11.8324 3.92835 11.865 4.14728L12.075 5.00828C12.4199 4.60455 12.832 4.2633 13.293 4.00028C13.6689 3.8034 14.0868 3.70103 14.511 3.70103H14.7367C14.8507 3.69105 14.9646 3.72255 15.057 3.79028C15.1305 3.87795 15.1646 3.99188 15.1515 4.10528V5.45978C15.1604 5.56898 15.1289 5.67713 15.0622 5.76428C14.9746 5.83778 14.8606 5.8719 14.7472 5.85878H14.4585C14.3393 5.85878 14.1892 5.85878 14.007 5.85878C13.7035 5.86508 13.4011 5.90025 13.104 5.96378C12.7942 6.021 12.4918 6.11078 12.201 6.23153V11.6128C12.2094 11.722 12.1779 11.8301 12.1117 11.9173C12.0241 11.9908 11.9101 12.0249 11.7967 12.0118H10.2585Z" fill="#EEEDED"/>
<path d="M17.4772 2.5143C17.1192 2.53215 16.768 2.41193 16.4955 2.1783C16.2424 1.94153 16.1065 1.60553 16.1227 1.25955C16.1049 0.911478 16.2409 0.573378 16.4955 0.335553C17.0709 -0.124872 17.8888 -0.124872 18.4642 0.335553C18.7173 0.572328 18.8533 0.908328 18.837 1.2543C18.8533 1.60028 18.7173 1.93628 18.4642 2.17305C18.1912 2.40983 17.8379 2.53215 17.4772 2.5143ZM16.7055 12.0168C16.5175 12.052 16.3364 11.9281 16.3012 11.7396C16.2934 11.6976 16.2934 11.6546 16.3012 11.6126V4.19955C16.2881 4.08615 16.3222 3.97223 16.3957 3.88455C16.4829 3.8184 16.591 3.7869 16.7002 3.7953H18.249C18.3613 3.78375 18.4742 3.81525 18.564 3.88455C18.6333 3.97433 18.6648 4.0872 18.6532 4.19955V11.6126C18.6622 11.7218 18.6307 11.8299 18.564 11.9171C18.4763 11.9906 18.3624 12.0247 18.249 12.0116L16.7055 12.0168Z" fill="#EEEDED"/>
<path d="M21.0525 12.0123C20.8645 12.0475 20.6834 11.9236 20.6482 11.7351C20.6404 11.6931 20.6404 11.6501 20.6482 11.6081V4.20032C20.6351 4.08692 20.6692 3.973 20.7427 3.88532C20.8299 3.81917 20.938 3.78767 21.0472 3.79607H22.2075C22.428 3.77402 22.6264 3.9289 22.659 4.14782L22.7902 4.58357C23.268 4.2544 23.7846 3.98665 24.3285 3.78557C24.7774 3.62912 25.2493 3.54775 25.725 3.54407C26.5524 3.4732 27.3472 3.88112 27.7725 4.59407C28.2518 4.26437 28.7726 3.99977 29.3212 3.80657C29.8053 3.6454 30.3124 3.56402 30.8227 3.56507C31.4674 3.52622 32.0995 3.75407 32.571 4.19507C33.0057 4.67177 33.2293 5.3044 33.1905 5.94857V11.6133C33.1989 11.7225 33.1674 11.8307 33.1012 11.9178C33.0136 11.9913 32.8996 12.0254 32.7862 12.0123H31.2585C31.0705 12.0475 30.8894 11.9236 30.8542 11.7351C30.8464 11.6931 30.8464 11.6501 30.8542 11.6081V6.44207C30.8542 5.71075 30.5272 5.34482 29.8725 5.34482C29.2624 5.35165 28.6613 5.4955 28.1137 5.76482V11.6133C28.1227 11.7225 28.0912 11.8307 28.0245 11.9178C27.9368 11.9913 27.8229 12.0254 27.7095 12.0123H26.166C25.978 12.0475 25.7969 11.9236 25.7617 11.7351C25.7539 11.6931 25.7539 11.6501 25.7617 11.6081V6.44207C25.7617 5.71075 25.4347 5.34482 24.78 5.34482C24.1626 5.3485 23.5546 5.49812 23.0055 5.78057V11.6081C23.0139 11.7173 22.9824 11.8254 22.9162 11.9126C22.8286 11.9861 22.7146 12.0202 22.6012 12.0071L21.0525 12.0123Z" fill="#EEEDED"/>
<path d="M38.808 12.2539C37.6766 12.3279 36.5652 11.931 35.7367 11.1566C34.9792 10.2893 34.6006 9.15481 34.6867 8.00663C34.6111 6.81646 34.9944 5.64203 35.7577 4.72538C36.5531 3.90428 37.6666 3.46906 38.808 3.53363C39.6522 3.48323 40.4859 3.74101 41.1547 4.25813C41.7207 4.74113 42.0325 5.45776 42 6.20063C42.0383 6.92776 41.6913 7.62181 41.0865 8.02763C40.2722 8.49278 39.3393 8.70803 38.4038 8.64713C37.8735 8.65343 37.3443 8.59358 36.8287 8.46863C36.8319 9.04928 37.066 9.60473 37.4797 10.0121C37.9696 10.3597 38.566 10.5251 39.165 10.4794C39.4579 10.4794 39.7509 10.46 40.0417 10.4216C40.4418 10.3597 40.8376 10.2752 41.2282 10.1696H41.3227H41.4015C41.5837 10.1696 41.6745 10.2941 41.6745 10.5424V11.2826C41.6845 11.4081 41.6593 11.5336 41.601 11.6449C41.5264 11.7326 41.4277 11.7961 41.3175 11.8286C40.5142 12.1242 39.6637 12.2686 38.808 12.2539ZM38.283 7.19813C38.6962 7.22806 39.1094 7.14091 39.4748 6.94613C39.7257 6.77446 39.8675 6.48308 39.8475 6.17963C39.8475 5.50396 39.4448 5.16638 38.64 5.16638C37.6073 5.16638 37.0109 5.80006 36.8498 7.06688C37.3186 7.15666 37.7953 7.20076 38.2725 7.19813H38.283Z" fill="#EEEDED"/>
<path d="M37.9628 21.0577C33.3638 24.4492 26.6963 26.2499 20.958 26.2499C13.2898 26.2909 5.8821 23.4701 0.183747 18.3382C-0.246753 17.9497 0.136497 17.4194 0.656247 17.7187C6.9867 21.3333 14.1514 23.2317 21.441 23.2259C26.8805 23.1971 32.2613 22.0961 37.275 19.9867C38.073 19.6559 38.724 20.4749 37.9628 21.0577Z" fill="#EEEDED"/>
<path d="M39.9 18.8999C39.312 18.1491 36.015 18.5429 34.5292 18.7214C34.0777 18.7739 34.0042 18.3854 34.4137 18.1019C37.0387 16.2539 41.3595 16.7894 41.8582 17.4089C42.357 18.0284 41.727 22.3491 39.2332 24.4124C38.8552 24.7274 38.493 24.5594 38.661 24.1394C39.2227 22.7271 40.467 19.6296 39.9 18.8999Z" fill="#EEEDED"/>
</g>
<defs>
<clipPath id="clip0_1073_6996">
<rect width="42" height="26.25" fill="white"/>
</clipPath>
</defs>
</svg>
