<svg width="20" height="21" viewBox="0 0 20 21" fill="none" xmlns="http://www.w3.org/2000/svg">
<path fill-rule="evenodd" clip-rule="evenodd" d="M6.2396 3.94167C6.55907 3.63793 7.07703 3.63793 7.39649 3.94167L13.6322 9.87037C13.6323 9.8705 13.6324 9.87063 13.6326 9.87076C13.749 9.98139 13.8413 10.1127 13.9044 10.2573C13.9675 10.402 14 10.5572 14 10.7139C14 10.8705 13.9675 11.0257 13.9044 11.1704C13.8413 11.315 13.749 11.4464 13.6326 11.557C13.6324 11.5571 13.6323 11.5572 13.6322 11.5574L7.39649 17.4861C7.07703 17.7898 6.55907 17.7898 6.2396 17.4861C5.92013 17.1823 5.92013 16.6899 6.2396 16.3861L12.2055 10.7139L6.2396 5.04162C5.92013 4.73788 5.92013 4.24541 6.2396 3.94167Z" fill="white"/>
</svg>
