<svg width="34" height="31" viewBox="0 0 34 31" fill="none" xmlns="http://www.w3.org/2000/svg">
<path fill-rule="evenodd" clip-rule="evenodd" d="M6.66979 13.7278H8.39268C8.89109 13.7278 9.29004 13.6208 9.58621 13.4058C9.88791 13.1908 10.0371 12.8988 10.0371 12.5308C10.0371 12.1218 9.89896 11.8248 9.62157 11.6408C9.34419 11.4528 8.92314 11.3588 8.35621 11.3588H6.66979V13.7278ZM6.66979 14.5158V17.1958H8.55292C9.08338 17.1958 9.50112 17.0778 9.80613 16.8428C10.1156 16.6038 10.2692 16.2768 10.2692 15.8608C10.2692 14.9638 9.70335 14.5158 8.5706 14.5158H6.66979ZM5.5293 17.9988V10.5508H8.35621C9.29556 10.5508 10.0006 10.7178 10.4714 11.0528C10.9466 11.3868 11.1842 11.8808 11.1842 12.5358C11.1842 12.8838 11.0693 13.1918 10.8394 13.4618C10.6096 13.7278 10.2968 13.9338 9.90117 14.0808C10.3686 14.1928 10.7366 14.4078 11.0063 14.7248C11.2793 15.0388 11.4152 15.4138 11.4152 15.8508C11.4152 16.5188 11.1643 17.0438 10.6615 17.4258C10.1587 17.8078 9.44807 17.9988 8.52971 17.9988H5.5293Z" fill="white"/>
<path fill-rule="evenodd" clip-rule="evenodd" d="M16.9048 17.4519C16.4771 17.8849 15.8494 18.1019 15.0217 18.1019C14.3365 18.1019 13.8138 17.9309 13.4535 17.5899C13.0976 17.2459 12.9175 16.7379 12.9131 16.0659V12.4648H14.0116V16.0399C14.0116 16.8789 14.4083 17.2989 15.2007 17.2989C16.0395 17.2989 16.5976 17.0289 16.875 16.4909V12.4648H17.9735V17.9989H16.928L16.9048 17.4519Z" fill="white"/>
<path fill-rule="evenodd" clip-rule="evenodd" d="M22.7549 13.3133C22.5892 13.2893 22.409 13.2773 22.2145 13.2773C21.494 13.2773 21.0044 13.5423 20.7469 14.0703V17.9993H19.6484V12.4643H20.7171L20.7348 13.1043C21.0962 12.6093 21.6067 12.3623 22.2676 12.3623C22.482 12.3623 22.6433 12.3863 22.7549 12.4333V13.3133Z" fill="white"/>
<path fill-rule="evenodd" clip-rule="evenodd" d="M26.7762 10.1426H28.1067L26.5142 11.6466H25.629L26.7762 10.1426ZM24.4653 15.2936C24.4653 15.9076 24.63 16.4006 24.9582 16.7716C25.2909 17.1436 25.7351 17.3296 26.2888 17.3296C26.8469 17.3296 27.2912 17.1426 27.6194 16.7666C27.9487 16.3886 28.1123 15.8596 28.1123 15.1816C28.1123 14.5746 27.9443 14.0826 27.6072 13.7076C27.2746 13.3296 26.8314 13.1406 26.2766 13.1406C25.7351 13.1406 25.2975 13.3266 24.9649 13.6976C24.6322 14.0696 24.4653 14.6016 24.4653 15.2936ZM23.3613 15.1816C23.3613 14.6386 23.484 14.1516 23.7293 13.7186C23.978 13.2856 24.3228 12.9506 24.7626 12.7156C25.2058 12.4806 25.7108 12.3626 26.2766 12.3626C27.1519 12.3626 27.8592 12.6236 28.3974 13.1446C28.94 13.6666 29.2119 14.3606 29.2119 15.2266V15.2936C29.2119 15.8326 29.0903 16.3166 28.8483 16.7466C28.6118 17.1726 28.2692 17.5046 27.8216 17.7436C27.3774 17.9826 26.8668 18.1016 26.2888 18.1016C25.418 18.1016 24.7107 17.8406 24.1692 17.3196C23.6299 16.7976 23.3613 16.1066 23.3613 15.2476V15.1816Z" fill="white"/>
<path fill-rule="evenodd" clip-rule="evenodd" d="M4.52816 20.1705V21.3685H4.71382C4.86301 21.3685 4.97684 21.3215 5.05641 21.2275C5.13598 21.1315 5.17687 20.9955 5.17908 20.8185V20.7265C5.17908 20.5455 5.1404 20.4085 5.06304 20.3135C4.98568 20.2175 4.87406 20.1705 4.72708 20.1705H4.52816ZM4.24414 21.5995V19.9375H4.72708C4.87185 19.9375 5.00005 19.9705 5.11166 20.0355C5.22328 20.1015 5.31059 20.1935 5.37137 20.3145C5.43326 20.4345 5.4642 20.5715 5.4642 20.7275V20.8105C5.4642 20.9675 5.43326 21.1065 5.37026 21.2255C5.30948 21.3455 5.22107 21.4375 5.10614 21.5025C4.99231 21.5665 4.86191 21.5995 4.71492 21.5995H4.24414Z" fill="white"/>
<path fill-rule="evenodd" clip-rule="evenodd" d="M6.15569 20.5638C6.08165 20.5638 6.01976 20.5908 5.97335 20.6438C5.92804 20.6968 5.8993 20.7718 5.88604 20.8658H6.40656V20.8458C6.39992 20.7528 6.37561 20.6828 6.33362 20.6358C6.29052 20.5878 6.23084 20.5638 6.15569 20.5638ZM6.18885 21.6218C6.01534 21.6218 5.87499 21.5658 5.76669 21.4568C5.6606 21.3448 5.60645 21.1978 5.60645 21.0138V20.9798C5.60645 20.8558 5.62965 20.7458 5.67607 20.6488C5.72359 20.5518 5.78879 20.4768 5.87389 20.4218C5.95898 20.3688 6.05292 20.3408 6.1568 20.3408C6.32257 20.3408 6.45076 20.3948 6.54028 20.5018C6.6309 20.6098 6.67621 20.7608 6.67621 20.9578V21.0688H5.88162C5.89046 21.1708 5.92362 21.2518 5.98219 21.3118C6.04076 21.3708 6.1148 21.3998 6.20432 21.3998C6.3292 21.3998 6.43087 21.3488 6.50933 21.2468L6.65742 21.3888C6.60769 21.4628 6.54359 21.5198 6.46071 21.5608C6.38114 21.6018 6.28941 21.6218 6.18885 21.6218Z" fill="white"/>
<path fill-rule="evenodd" clip-rule="evenodd" d="M8.56531 20.8575H7.89339V21.3685H8.67914V21.5995H7.60938V19.9375H8.6714V20.1705H7.89339V20.6285H8.56531V20.8575Z" fill="white"/>
<path fill-rule="evenodd" clip-rule="evenodd" d="M9.12358 20.3648L9.13131 20.5078C9.22083 20.3968 9.33908 20.3418 9.48495 20.3418C9.73803 20.3418 9.86733 20.4898 9.87175 20.7838V21.5998H9.59878V20.7998C9.59878 20.7208 9.5822 20.6638 9.54794 20.6258C9.51479 20.5878 9.46064 20.5688 9.38549 20.5688C9.27498 20.5688 9.1932 20.6198 9.13905 20.7208V21.5998H8.86719V20.3648H9.12358Z" fill="white"/>
<path fill-rule="evenodd" clip-rule="evenodd" d="M10.5335 19.9375V20.3645H10.7479V20.5695H10.5335V21.2585C10.5335 21.3065 10.5424 21.3405 10.5601 21.3615C10.5788 21.3825 10.612 21.3925 10.6595 21.3925C10.6905 21.3925 10.7877 21.3755 10.8198 21.3685V21.5835C10.7579 21.6005 10.633 21.6215 10.5755 21.6215C10.3656 21.6215 10.2606 21.5045 10.2606 21.2695V20.5695H10.0605V20.3645H10.2606V19.9375H10.5335Z" fill="white"/>
<path fill-rule="evenodd" clip-rule="evenodd" d="M11.0029 20.0435C11.0029 20.0015 11.0162 19.9655 11.0427 19.9375C11.0692 19.9095 11.1079 19.8955 11.1565 19.8955C11.2063 19.8955 11.245 19.9095 11.2715 19.9375C11.2991 19.9655 11.3124 20.0015 11.3124 20.0435C11.3124 20.0855 11.2991 20.1205 11.2715 20.1485C11.245 20.1765 11.2063 20.1895 11.1565 20.1895C11.1079 20.1895 11.0692 20.1765 11.0427 20.1485C11.0162 20.1205 11.0029 20.0855 11.0029 20.0435ZM11.0195 21.5995H11.2925V20.3645H11.0195V21.5995Z" fill="white"/>
<path fill-rule="evenodd" clip-rule="evenodd" d="M11.9116 20.9967C11.9116 21.1217 11.9348 21.2207 11.9824 21.2907C12.0299 21.3607 12.0984 21.3957 12.1857 21.3957C12.2973 21.3957 12.3791 21.3457 12.431 21.2447V20.7167C12.3802 20.6187 12.2995 20.5687 12.1879 20.5687C12.0995 20.5687 12.031 20.6047 11.9835 20.6757C11.9359 20.7467 11.9116 20.8537 11.9116 20.9967ZM11.6387 20.9727C11.6387 20.7827 11.6818 20.6297 11.7691 20.5157C11.8564 20.3997 11.9724 20.3417 12.1183 20.3417C12.2476 20.3417 12.3515 20.3877 12.431 20.4787V19.8467H12.7029V21.5997H12.4565L12.4432 21.4717C12.3614 21.5717 12.252 21.6217 12.1161 21.6217C11.9735 21.6217 11.8586 21.5637 11.7702 21.4477C11.6829 21.3307 11.6387 21.1727 11.6387 20.9727Z" fill="white"/>
<path fill-rule="evenodd" clip-rule="evenodd" d="M13.393 21.3998C13.4471 21.3998 13.4969 21.3858 13.5444 21.3598C13.5919 21.3328 13.6284 21.2968 13.6516 21.2528V21.0198H13.5057C13.404 21.0198 13.3278 21.0378 13.277 21.0728C13.2261 21.1088 13.2007 21.1598 13.2007 21.2248C13.2007 21.2778 13.2184 21.3208 13.2526 21.3528C13.288 21.3838 13.3344 21.3998 13.393 21.3998ZM13.6925 21.5998C13.6803 21.5758 13.6704 21.5378 13.6615 21.4838C13.5742 21.5758 13.4681 21.6218 13.3422 21.6218C13.2206 21.6218 13.12 21.5868 13.0438 21.5158C12.9664 21.4448 12.9277 21.3578 12.9277 21.2538C12.9277 21.1218 12.9764 21.0218 13.0714 20.9508C13.1675 20.8798 13.3057 20.8448 13.4847 20.8448H13.6516V20.7638C13.6516 20.6998 13.635 20.6498 13.5997 20.6108C13.5643 20.5718 13.5101 20.5528 13.4394 20.5528C13.3764 20.5528 13.3256 20.5688 13.2858 20.6008C13.246 20.6318 13.2272 20.6718 13.2272 20.7208H12.9543C12.9543 20.6528 12.9764 20.5898 13.0206 20.5308C13.0648 20.4718 13.1244 20.4258 13.1996 20.3918C13.2758 20.3588 13.3609 20.3418 13.4549 20.3418C13.5974 20.3418 13.7102 20.3788 13.7953 20.4518C13.8792 20.5238 13.9223 20.6258 13.9246 20.7568V21.3138C13.9246 21.4248 13.9411 21.5138 13.971 21.5798V21.5998H13.6925Z" fill="white"/>
<path fill-rule="evenodd" clip-rule="evenodd" d="M14.3999 20.9967C14.3999 21.1217 14.4231 21.2207 14.4706 21.2907C14.5182 21.3607 14.5867 21.3957 14.674 21.3957C14.7856 21.3957 14.8674 21.3457 14.9193 21.2447V20.7167C14.8685 20.6187 14.7878 20.5687 14.6762 20.5687C14.5878 20.5687 14.5193 20.6047 14.4718 20.6757C14.4242 20.7467 14.3999 20.8537 14.3999 20.9967ZM14.127 20.9727C14.127 20.7827 14.1701 20.6297 14.2574 20.5157C14.3447 20.3997 14.4607 20.3417 14.6066 20.3417C14.7359 20.3417 14.8398 20.3877 14.9193 20.4787V19.8467H15.1923V21.5997H14.9447L14.9315 21.4717C14.8497 21.5717 14.7414 21.6217 14.6044 21.6217C14.4629 21.6217 14.3469 21.5637 14.2585 21.4477C14.1712 21.3307 14.127 21.1727 14.127 20.9727Z" fill="white"/>
<path fill-rule="evenodd" clip-rule="evenodd" d="M15.8998 20.5638C15.8247 20.5638 15.7639 20.5908 15.7175 20.6438C15.6722 20.6968 15.6434 20.7718 15.6302 20.8658H16.1507V20.8458C16.1441 20.7528 16.1198 20.6828 16.0778 20.6358C16.0347 20.5878 15.975 20.5638 15.8998 20.5638ZM15.9319 21.6218C15.7595 21.6218 15.6191 21.5658 15.5108 21.4568C15.4047 21.3448 15.3506 21.1978 15.3506 21.0138V20.9798C15.3506 20.8558 15.3738 20.7458 15.4202 20.6488C15.4677 20.5518 15.5329 20.4768 15.618 20.4218C15.702 20.3688 15.7971 20.3408 15.9009 20.3408C16.0667 20.3408 16.1938 20.3948 16.2844 20.5018C16.375 20.6098 16.4203 20.7608 16.4203 20.9578V21.0688H15.6258C15.6335 21.1708 15.6678 21.2518 15.7252 21.3118C15.7849 21.3708 15.8589 21.3998 15.9485 21.3998C16.0733 21.3998 16.175 21.3488 16.2535 21.2468L16.4005 21.3888C16.3518 21.4628 16.2866 21.5198 16.2048 21.5608C16.1242 21.6018 16.0336 21.6218 15.9319 21.6218Z" fill="white"/>
<path fill-rule="evenodd" clip-rule="evenodd" d="M17.1541 21.2638C17.1541 21.2138 17.1331 21.1768 17.0933 21.1508C17.0535 21.1248 16.9872 21.1018 16.8944 21.0818C16.8016 21.0618 16.7242 21.0368 16.6623 21.0068C16.5264 20.9398 16.4579 20.8428 16.4579 20.7158C16.4579 20.6098 16.5021 20.5198 16.5905 20.4488C16.6789 20.3778 16.7905 20.3418 16.9265 20.3418C17.0723 20.3418 17.1895 20.3778 17.279 20.4518C17.3685 20.5238 17.4127 20.6188 17.4127 20.7358H17.1408C17.1408 20.6818 17.121 20.6378 17.0823 20.6028C17.0425 20.5668 16.9917 20.5498 16.9265 20.5498C16.8668 20.5498 16.8182 20.5628 16.7806 20.5918C16.7419 20.6198 16.7242 20.6578 16.7242 20.7038C16.7242 20.7468 16.7408 20.7808 16.7762 20.8038C16.8115 20.8268 16.8822 20.8508 16.9906 20.8758C17.0966 20.8988 17.1806 20.9278 17.2414 20.9608C17.3033 20.9938 17.3486 21.0338 17.3773 21.0798C17.4072 21.1258 17.4227 21.1828 17.4227 21.2488C17.4227 21.3598 17.3773 21.4498 17.2867 21.5188C17.1961 21.5878 17.0768 21.6218 16.9309 21.6218C16.8314 21.6218 16.7419 21.6038 16.6645 21.5668C16.5861 21.5308 16.5264 21.4808 16.4822 21.4168C16.4391 21.3528 16.417 21.2838 16.417 21.2098H16.6822C16.6855 21.2758 16.711 21.3258 16.7552 21.3618C16.8005 21.3968 16.859 21.4138 16.9342 21.4138C17.006 21.4138 17.0602 21.4008 17.0977 21.3728C17.1353 21.3448 17.1541 21.3088 17.1541 21.2638Z" fill="white"/>
<path fill-rule="evenodd" clip-rule="evenodd" d="M19.2024 20.8955H18.5438V21.5995H18.2598V19.9375H19.2986V20.1705H18.5438V20.6655H19.2024V20.8955Z" fill="white"/>
<path fill-rule="evenodd" clip-rule="evenodd" d="M19.498 20.0435C19.498 20.0015 19.5113 19.9655 19.5378 19.9375C19.5644 19.9095 19.603 19.8955 19.6517 19.8955C19.7014 19.8955 19.7401 19.9095 19.7666 19.9375C19.7942 19.9655 19.8075 20.0015 19.8075 20.0435C19.8075 20.0855 19.7942 20.1205 19.7666 20.1485C19.7401 20.1765 19.7014 20.1895 19.6517 20.1895C19.603 20.1895 19.5644 20.1765 19.5378 20.1485C19.5113 20.1205 19.498 20.0855 19.498 20.0435ZM19.5146 21.5995H19.7876V20.3645H19.5146V21.5995Z" fill="white"/>
<path fill-rule="evenodd" clip-rule="evenodd" d="M20.3394 20.3648L20.3471 20.5078C20.4366 20.3968 20.5549 20.3418 20.7008 20.3418C20.9538 20.3418 21.0831 20.4898 21.0876 20.7838V21.5998H20.8146V20.7998C20.8146 20.7208 20.798 20.6638 20.7638 20.6258C20.7306 20.5878 20.6765 20.5688 20.6013 20.5688C20.4908 20.5688 20.409 20.6198 20.3549 20.7208V21.5998H20.083V20.3648H20.3394Z" fill="white"/>
<path fill-rule="evenodd" clip-rule="evenodd" d="M21.7933 21.3998C21.8474 21.3998 21.8982 21.3858 21.9447 21.3598C21.9933 21.3328 22.0286 21.2968 22.053 21.2528V21.0198H21.906C21.8043 21.0198 21.7281 21.0378 21.6783 21.0728C21.6264 21.1088 21.601 21.1598 21.601 21.2248C21.601 21.2778 21.6186 21.3208 21.6529 21.3528C21.6883 21.3838 21.7347 21.3998 21.7933 21.3998ZM22.0927 21.5998C22.0817 21.5758 22.0706 21.5378 22.0618 21.4838C21.9756 21.5758 21.8684 21.6218 21.7435 21.6218C21.6209 21.6218 21.5214 21.5868 21.444 21.5158C21.3667 21.4448 21.3291 21.3578 21.3291 21.2538C21.3291 21.1218 21.3766 21.0218 21.4717 20.9508C21.5689 20.8798 21.7059 20.8448 21.885 20.8448H22.053V20.7638C22.053 20.6998 22.0353 20.6498 21.9999 20.6108C21.9645 20.5718 21.9115 20.5528 21.8397 20.5528C21.7767 20.5528 21.7258 20.5688 21.6861 20.6008C21.6474 20.6318 21.6275 20.6718 21.6275 20.7208H21.3545C21.3545 20.6528 21.3766 20.5898 21.4208 20.5308C21.465 20.4718 21.5247 20.4258 21.5999 20.3918C21.6772 20.3588 21.7612 20.3418 21.8551 20.3418C21.9977 20.3418 22.1104 20.3788 22.1955 20.4518C22.2795 20.5238 22.3226 20.6258 22.3259 20.7568V21.3138C22.3259 21.4248 22.3414 21.5138 22.3712 21.5798V21.5998H22.0927Z" fill="white"/>
<path fill-rule="evenodd" clip-rule="evenodd" d="M22.8649 20.3648L22.8727 20.5078C22.9622 20.3968 23.0804 20.3418 23.2263 20.3418C23.4794 20.3418 23.6076 20.4898 23.6131 20.7838V21.5998H23.3401V20.7998C23.3401 20.7208 23.3235 20.6638 23.2893 20.6258C23.2561 20.5878 23.202 20.5688 23.1268 20.5688C23.0163 20.5688 22.9345 20.6198 22.8804 20.7208V21.5998H22.6074V20.3648H22.8649Z" fill="white"/>
<path fill-rule="evenodd" clip-rule="evenodd" d="M24.3902 21.4008C24.4587 21.4008 24.5151 21.3808 24.5593 21.3398C24.6046 21.2998 24.6289 21.2508 24.6311 21.1908H24.8886C24.8864 21.2678 24.8621 21.3398 24.8179 21.4068C24.7737 21.4728 24.714 21.5258 24.6388 21.5638C24.5626 21.6028 24.4819 21.6218 24.3935 21.6218C24.2233 21.6218 24.0896 21.5668 23.989 21.4548C23.8896 21.3428 23.8398 21.1888 23.8398 20.9908V20.9628C23.8398 20.7748 23.8896 20.6248 23.9879 20.5118C24.0874 20.3988 24.2222 20.3418 24.3924 20.3418C24.5372 20.3418 24.6543 20.3848 24.7449 20.4708C24.8367 20.5558 24.8842 20.6688 24.8886 20.8078H24.6311C24.6289 20.7368 24.6046 20.6788 24.5593 20.6328C24.5151 20.5878 24.4587 20.5648 24.3902 20.5648C24.3018 20.5648 24.2333 20.5968 24.1857 20.6628C24.1371 20.7268 24.1139 20.8258 24.1128 20.9578V21.0028C24.1128 21.1368 24.1371 21.2358 24.1835 21.3028C24.2311 21.3678 24.3007 21.4008 24.3902 21.4008Z" fill="white"/>
<path fill-rule="evenodd" clip-rule="evenodd" d="M25.0957 20.0435C25.0957 20.0015 25.109 19.9655 25.1355 19.9375C25.162 19.9095 25.2007 19.8955 25.2493 19.8955C25.299 19.8955 25.3377 19.9095 25.3642 19.9375C25.3908 19.9655 25.404 20.0015 25.404 20.0435C25.404 20.0855 25.3908 20.1205 25.3642 20.1485C25.3377 20.1765 25.299 20.1895 25.2493 20.1895C25.2007 20.1895 25.162 20.1765 25.1355 20.1485C25.109 20.1205 25.0957 20.0855 25.0957 20.0435ZM25.1123 21.5995H25.3852V20.3645H25.1123V21.5995Z" fill="white"/>
<path fill-rule="evenodd" clip-rule="evenodd" d="M26.186 20.5638C26.1108 20.5638 26.05 20.5908 26.0036 20.6438C25.9583 20.6968 25.9296 20.7718 25.9163 20.8658H26.4368V20.8458C26.4302 20.7528 26.4059 20.6828 26.3639 20.6358C26.3208 20.5878 26.2611 20.5638 26.186 20.5638ZM26.218 21.6218C26.0456 21.6218 25.9053 21.5658 25.797 21.4568C25.6898 21.3448 25.6367 21.1978 25.6367 21.0138V20.9798C25.6367 20.8558 25.6599 20.7458 25.7063 20.6488C25.7539 20.5518 25.8191 20.4768 25.9042 20.4218C25.9881 20.3688 26.0832 20.3408 26.1871 20.3408C26.3528 20.3408 26.4799 20.3948 26.5705 20.5018C26.6612 20.6098 26.7054 20.7608 26.7054 20.9578V21.0688H25.9119C25.9196 21.1708 25.9539 21.2518 26.0114 21.3118C26.071 21.3708 26.1451 21.3998 26.2335 21.3998C26.3595 21.3998 26.4611 21.3488 26.5396 21.2468L26.6866 21.3888C26.638 21.4628 26.5728 21.5198 26.491 21.5608C26.4103 21.6018 26.3197 21.6218 26.218 21.6218Z" fill="white"/>
<path fill-rule="evenodd" clip-rule="evenodd" d="M27.5555 20.6178C27.519 20.6118 27.4826 20.6088 27.4439 20.6088C27.319 20.6088 27.235 20.6578 27.1919 20.7548V21.5988H26.9189V20.3648H27.1798L27.1864 20.5028C27.2516 20.3948 27.3433 20.3418 27.4605 20.3418C27.4991 20.3418 27.5312 20.3468 27.5566 20.3578L27.5555 20.6178Z" fill="white"/>
<path fill-rule="evenodd" clip-rule="evenodd" d="M28.1205 21.3998C28.1747 21.3998 28.2244 21.3858 28.2719 21.3598C28.3206 21.3328 28.3559 21.2968 28.3791 21.2528V21.0198H28.2333C28.1316 21.0198 28.0553 21.0378 28.0045 21.0728C27.9537 21.1088 27.9282 21.1598 27.9282 21.2248C27.9282 21.2778 27.9459 21.3208 27.9802 21.3528C28.0155 21.3838 28.062 21.3998 28.1205 21.3998ZM28.42 21.5998C28.4079 21.5758 28.3979 21.5378 28.3891 21.4838C28.3018 21.5758 28.1957 21.6218 28.0697 21.6218C27.9481 21.6218 27.8476 21.5868 27.7713 21.5158C27.694 21.4448 27.6553 21.3578 27.6553 21.2538C27.6553 21.1218 27.7039 21.0218 27.7989 20.9508C27.8951 20.8798 28.0332 20.8448 28.2123 20.8448H28.3791V20.7638C28.3791 20.6998 28.3626 20.6498 28.3272 20.6108C28.2918 20.5718 28.2377 20.5528 28.1669 20.5528C28.104 20.5528 28.0531 20.5688 28.0133 20.6008C27.9735 20.6318 27.9548 20.6718 27.9548 20.7208H27.6818C27.6818 20.6528 27.7039 20.5898 27.7481 20.5308C27.7923 20.4718 27.852 20.4258 27.9271 20.3918C28.0034 20.3588 28.0885 20.3418 28.1824 20.3418C28.325 20.3418 28.4377 20.3788 28.5228 20.4518C28.6068 20.5238 28.6499 20.6258 28.6521 20.7568V21.3138C28.6521 21.4248 28.6687 21.5138 28.6985 21.5798V21.5998H28.42Z" fill="white"/>
<path fill-rule="evenodd" clip-rule="evenodd" d="M29.619 21.2638C29.619 21.2138 29.5991 21.1768 29.5582 21.1508C29.5184 21.1248 29.4521 21.1018 29.3592 21.0818C29.2664 21.0618 29.1891 21.0368 29.1272 21.0068C28.9912 20.9398 28.9227 20.8428 28.9227 20.7158C28.9227 20.6098 28.9669 20.5198 29.0553 20.4488C29.1438 20.3778 29.2554 20.3418 29.3924 20.3418C29.5372 20.3418 29.6543 20.3778 29.7438 20.4518C29.8333 20.5238 29.8787 20.6188 29.8787 20.7358H29.6057C29.6057 20.6818 29.5858 20.6378 29.5471 20.6028C29.5084 20.5668 29.4565 20.5498 29.3924 20.5498C29.3327 20.5498 29.283 20.5628 29.2454 20.5918C29.2078 20.6198 29.1891 20.6578 29.1891 20.7038C29.1891 20.7468 29.2067 20.7808 29.2421 20.8038C29.2764 20.8268 29.3482 20.8508 29.4554 20.8758C29.5626 20.8988 29.6455 20.9278 29.7074 20.9608C29.7681 20.9938 29.8135 21.0338 29.8422 21.0798C29.872 21.1258 29.8875 21.1828 29.8875 21.2488C29.8875 21.3598 29.8422 21.4498 29.7516 21.5188C29.6609 21.5878 29.5427 21.6218 29.3957 21.6218C29.2963 21.6218 29.2067 21.6038 29.1294 21.5668C29.0509 21.5308 28.9912 21.4808 28.9481 21.4168C28.9039 21.3528 28.8818 21.2838 28.8818 21.2098H29.1471C29.1515 21.2758 29.1758 21.3258 29.22 21.3618C29.2653 21.3968 29.325 21.4138 29.399 21.4138C29.4709 21.4138 29.5261 21.4008 29.5626 21.3728C29.6002 21.3448 29.619 21.3088 29.619 21.2638Z" fill="white"/>
<path d="M3.90625 21.9922H30.2933" stroke="white" stroke-width="0.3"/>
<mask id="mask0_1277_2696" style="mask-type:alpha" maskUnits="userSpaceOnUse" x="0" y="0" width="34" height="31">
<path d="M0.793945 0.713867H33.9475V30.7139H0.793945V0.713867Z" fill="white"/>
</mask>
<g mask="url(#mask0_1277_2696)">
<path fill-rule="evenodd" clip-rule="evenodd" d="M4.7724 2.51387C3.6739 2.51387 2.78317 3.31988 2.78317 4.31388V27.114C2.78317 28.108 3.6739 28.914 4.7724 28.914H29.9692C31.0677 28.914 31.9585 28.108 31.9585 27.114V4.31388C31.9585 3.31988 31.0677 2.51387 29.9692 2.51387H4.7724ZM2.78317 0.713867C1.68468 0.713867 0.793945 1.51987 0.793945 2.51387V28.914C0.793945 29.909 1.68468 30.714 2.78317 30.714H31.9585C33.057 30.714 33.9477 29.909 33.9477 28.914V2.51387C33.9477 1.51987 33.057 0.713867 31.9585 0.713867H2.78317Z" fill="white"/>
</g>
</svg>
