<svg width="24" height="24" viewBox="0 0 24 24" fill="none" xmlns="http://www.w3.org/2000/svg">
<circle cx="12" cy="12" r="6" fill="white"/>
<path d="M12 22C13.9778 22 15.9112 21.4135 17.5557 20.3147C19.2002 19.2159 20.4819 17.6541 21.2388 15.8268C21.9957 13.9996 22.1937 11.9889 21.8079 10.0491C21.422 8.10929 20.4696 6.32746 19.0711 4.92894C17.6725 3.53041 15.8907 2.578 13.9509 2.19215C12.0111 1.8063 10.0004 2.00433 8.17317 2.76121C6.3459 3.51809 4.78412 4.79981 3.6853 6.4443C2.58649 8.08879 2 10.0222 2 12C2 14.6522 3.05357 17.1957 4.92893 19.0711C6.8043 20.9464 9.34784 22 12 22ZM7.875 9.05C7.73848 8.89059 7.66714 8.68552 7.67524 8.47579C7.68334 8.26606 7.77029 8.06711 7.9187 7.9187C8.06711 7.77029 8.26606 7.68335 8.47579 7.67524C8.68552 7.66714 8.89058 7.73848 9.05 7.875L11.85 10.675C11.8694 10.6952 11.8927 10.7112 11.9185 10.7222C11.9443 10.7331 11.972 10.7388 12 10.7388C12.028 10.7388 12.0557 10.7331 12.0815 10.7222C12.1073 10.7112 12.1306 10.6952 12.15 10.675L14.95 7.875C15.1058 7.71366 15.3193 7.62083 15.5436 7.61692C15.7679 7.61302 15.9845 7.69836 16.1458 7.85417C16.3072 8.00999 16.4 8.22351 16.4039 8.44777C16.4078 8.67204 16.3225 8.88866 16.1667 9.05L13.3667 11.85C13.3465 11.8694 13.3305 11.8927 13.3195 11.9185C13.3086 11.9443 13.3029 11.972 13.3029 12C13.3029 12.028 13.3086 12.0557 13.3195 12.0815C13.3305 12.1073 13.3465 12.1306 13.3667 12.15L16.1667 14.95C16.2499 15.028 16.3163 15.1222 16.3617 15.2268C16.407 15.3314 16.4305 15.4443 16.4305 15.5583C16.4305 15.6724 16.407 15.7852 16.3617 15.8899C16.3163 15.9945 16.2499 16.0887 16.1667 16.1667C16.0888 16.2439 15.9965 16.305 15.8949 16.3465C15.7934 16.388 15.6847 16.409 15.575 16.4083C15.3564 16.4074 15.1469 16.3206 14.9917 16.1667L12.1917 13.3667C12.1722 13.3465 12.1489 13.3305 12.1232 13.3195C12.0974 13.3086 12.0697 13.3029 12.0417 13.3029C12.0137 13.3029 11.9859 13.3086 11.9602 13.3195C11.9344 13.3305 11.9111 13.3465 11.8917 13.3667L9.05 16.1667C8.89478 16.3206 8.68528 16.4074 8.46667 16.4083C8.357 16.409 8.24828 16.388 8.14674 16.3465C8.04521 16.305 7.95287 16.2439 7.875 16.1667C7.71979 16.0105 7.63267 15.7993 7.63267 15.5792C7.63267 15.359 7.71979 15.1478 7.875 14.9917L10.675 12.1917C10.6952 12.1722 10.7112 12.1489 10.7222 12.1232C10.7331 12.0974 10.7388 12.0697 10.7388 12.0417C10.7388 12.0137 10.7331 11.986 10.7222 11.9602C10.7112 11.9344 10.6952 11.9111 10.675 11.8917L7.875 9.05Z" fill="#BA4B44"/>
</svg>
