<svg width="27" height="25" viewBox="0 0 27 25" fill="none" xmlns="http://www.w3.org/2000/svg">
<path fill-rule="evenodd" clip-rule="evenodd" d="M22.9277 5.46971C23.9902 5.74018 24.8291 6.51295 25.1087 7.49179C25.626 9.26916 25.626 12.9785 25.626 12.9785C25.626 12.9785 25.626 16.6878 25.1227 18.4651C24.8291 19.4569 24.0042 20.2296 22.9417 20.4872C21.0123 20.9638 13.3228 20.9638 13.3228 20.9638C13.3228 20.9638 5.63325 20.9638 3.71786 20.4872C2.6553 20.2167 1.81645 19.444 1.53683 18.4651C1.01953 16.6878 1.01953 12.9785 1.01953 12.9785C1.01953 12.9785 1.01953 9.26916 1.52285 7.49179C1.81645 6.50007 2.64132 5.7273 3.70388 5.46971C5.63325 4.99316 13.3228 4.99316 13.3228 4.99316C13.3228 4.99316 21.0123 4.99316 22.9277 5.46971ZM15.8557 12.9784L10.7897 10.3166V15.6401L15.8557 12.9784Z" fill="white"/>
</svg>
