<svg width="67" height="68" viewBox="0 0 67 68" fill="none" xmlns="http://www.w3.org/2000/svg">
<path fill-rule="evenodd" clip-rule="evenodd" d="M58.489 14.3308C55.5585 14.3308 53.183 16.7425 53.183 19.7175C53.183 22.6925 55.5585 25.1043 58.489 25.1043C61.42 25.1043 63.7955 22.6925 63.7955 19.7175C63.7955 16.7425 61.42 14.3308 58.489 14.3308ZM52.25 19.7175C52.25 16.2195 55.0435 13.3838 58.489 13.3838C61.935 13.3838 64.7285 16.2195 64.7285 19.7175C64.7285 23.2155 61.935 26.0513 58.489 26.0513C55.0435 26.0513 52.25 23.2155 52.25 19.7175Z" fill="#006FB9"/>
<path d="M15.7767 21.8447C16.7564 21.8447 17.5505 21.035 17.5505 20.0361C17.5505 19.0373 16.7564 18.2275 15.7767 18.2275C14.7971 18.2275 14.0029 19.0373 14.0029 20.0361C14.0029 21.035 14.7971 21.8447 15.7767 21.8447Z" fill="#006FB9"/>
<path d="M47.1513 30.8613H17.9473C16.0143 30.8613 14.4473 32.4521 14.4473 34.4144V49.9933C14.4473 51.9556 16.0143 53.5464 17.9473 53.5464H47.1513C49.0843 53.5464 50.6513 51.9556 50.6513 49.9933V34.4144C50.6513 32.4521 49.0843 30.8613 47.1513 30.8613Z" fill="#FFDD35" stroke="black" stroke-width="2"/>
<path d="M48.3931 25.6914H16.4912C14.6575 25.6914 13.1709 27.2005 13.1709 29.062C13.1709 30.9236 14.6575 32.4327 16.4912 32.4327H48.3931C50.2268 32.4327 51.7134 30.9236 51.7134 29.062C51.7134 27.2005 50.2268 25.6914 48.3931 25.6914Z" fill="#FFDD35" stroke="black" stroke-width="2"/>
<path d="M33.9304 25.6143H30.9541V53.6236H33.9304V25.6143Z" fill="#006FB9"/>
<path d="M50.9387 32.54H13.9473V33.4019H50.9387V32.54Z" fill="black"/>
<path d="M32.4633 25.1837L32.3654 25.6814L33.3929 25.8897L32.9061 24.9479L32.4633 25.1837ZM32.5612 24.6859C30.7557 24.3199 27.5254 23.1506 25.1971 21.5607C24.0273 20.7619 23.1486 19.8991 22.7543 19.0352C22.5615 18.6129 22.4884 18.1994 22.543 17.7897C22.5977 17.3794 22.7856 16.9347 23.1749 16.4588L22.4057 15.8102C21.9193 16.4047 21.6363 17.0219 21.5521 17.6535C21.4678 18.2857 21.5878 18.8942 21.847 19.462C22.3566 20.5784 23.4175 21.5689 24.6389 22.403C27.0928 24.0787 30.4506 25.2933 32.3654 25.6814L32.5612 24.6859ZM23.1749 16.4588C23.5926 15.9485 23.9785 15.6545 24.3253 15.5067C24.6632 15.3626 24.9878 15.3467 25.3163 15.4339C26.0085 15.6174 26.7618 16.2712 27.562 17.3319C29.1529 19.4406 30.6326 22.734 32.0206 25.4195L32.9061 24.9479C31.5658 22.3547 30.016 18.915 28.3559 16.7146C27.5307 15.6208 26.6032 14.726 25.5691 14.4517C25.0345 14.3099 24.4847 14.3378 23.9381 14.5707C23.4003 14.8 22.8916 15.2164 22.4057 15.8102L23.1749 16.4588Z" fill="black"/>
<path d="M32.5692 25.1837L32.6671 25.6814L31.6396 25.8897L32.1264 24.9479L32.5692 25.1837ZM32.4713 24.6859C34.2769 24.3199 37.5072 23.1506 39.8355 21.5607C41.0052 20.7619 41.8839 19.8991 42.2782 19.0352C42.471 18.6129 42.5441 18.1994 42.4895 17.7897C42.4348 17.3794 42.247 16.9347 41.8576 16.4588L42.6268 15.8102C43.1133 16.4047 43.3963 17.0219 43.4805 17.6535C43.5647 18.2857 43.4448 18.8942 43.1856 19.462C42.676 20.5784 41.615 21.5689 40.3936 22.403C37.9397 24.0787 34.5819 25.2933 32.6671 25.6814L32.4713 24.6859ZM41.8576 16.4588C41.44 15.9485 41.054 15.6545 40.7073 15.5067C40.3693 15.3626 40.0447 15.3467 39.7162 15.4339C39.0241 15.6174 38.2707 16.2712 37.4705 17.3319C35.8796 19.4406 34.3999 22.734 33.0119 25.4195L32.1264 24.9479C33.4667 22.3547 35.0165 18.915 36.6766 16.7146C37.5018 15.6208 38.4293 14.726 39.4634 14.4517C39.998 14.3099 40.5479 14.3378 41.0944 14.5707C41.6323 14.8 42.1409 15.2164 42.6268 15.8102L41.8576 16.4588Z" fill="black"/>
<path d="M4.17392 31.5279C5.78876 31.5279 7.09784 30.1932 7.09784 28.5467C7.09784 26.9002 5.78876 25.5654 4.17392 25.5654C2.55908 25.5654 1.25 26.9002 1.25 28.5467C1.25 30.1932 2.55908 31.5279 4.17392 31.5279Z" fill="#FFDD35"/>
<path d="M6.06738 13.3994V15.5479" stroke="black" stroke-width="0.992708" stroke-linecap="round" stroke-linejoin="round"/>
<path d="M6.06738 17.2578V19.4063" stroke="black" stroke-width="0.992708" stroke-linecap="round" stroke-linejoin="round"/>
<path d="M9.0134 16.4023H6.90625" stroke="black" stroke-width="0.992708" stroke-linecap="round" stroke-linejoin="round"/>
<path d="M5.22829 16.4023H3.12109" stroke="black" stroke-width="0.992708" stroke-linecap="round" stroke-linejoin="round"/>
<path d="M58.7109 31.6719V33.8204" stroke="black" stroke-width="0.992708" stroke-linecap="round" stroke-linejoin="round"/>
<path d="M58.7109 35.5312V37.6798" stroke="black" stroke-width="0.992708" stroke-linecap="round" stroke-linejoin="round"/>
<path d="M61.6558 34.6758H59.5488" stroke="black" stroke-width="0.992708" stroke-linecap="round" stroke-linejoin="round"/>
<path d="M57.8717 34.6758H55.7646" stroke="black" stroke-width="0.992708" stroke-linecap="round" stroke-linejoin="round"/>
</svg>
