<svg width="32" height="33" viewBox="0 0 32 33" fill="none" xmlns="http://www.w3.org/2000/svg">
<path d="M20.6214 17.683C25.8488 17.683 30.0865 15.7996 30.0865 13.4763C30.0865 11.1529 25.8488 9.26953 20.6214 9.26953C15.3939 9.26953 11.1562 11.1529 11.1562 13.4763C11.1562 15.7996 15.3939 17.683 20.6214 17.683Z" stroke="#FFDD35" stroke-width="2.6" stroke-linecap="round" stroke-linejoin="round"/>
<path d="M11.1562 13.4766V26.0968C11.1562 28.4105 15.363 30.3035 20.6214 30.3035C25.8798 30.3035 30.0865 28.4105 30.0865 26.0968V13.4766" stroke="#FFDD35" stroke-width="2.6" stroke-linecap="round" stroke-linejoin="round"/>
<path d="M30.0865 19.7861C30.0865 22.0998 25.8798 23.9929 20.6214 23.9929C15.363 23.9929 11.1562 22.0998 11.1562 19.7861" stroke="#FFDD35" stroke-width="2.6" stroke-linecap="round" stroke-linejoin="round"/>
<path d="M20.4105 5.06323C17.9527 3.54644 15.0917 2.81287 12.2073 2.95987C6.96995 2.95987 2.74219 4.8529 2.74219 7.1666C2.74219 8.40758 3.96214 9.52237 5.89724 10.3216" stroke="#FFDD35" stroke-width="2.6" stroke-linecap="round" stroke-linejoin="round"/>
<path d="M5.89724 22.9422C3.96214 22.143 2.74219 21.0282 2.74219 19.7872V7.16699" stroke="#FFDD35" stroke-width="2.6" stroke-linecap="round" stroke-linejoin="round"/>
<path d="M5.89724 16.6316C3.96214 15.8323 2.74219 14.7175 2.74219 13.4766" stroke="#FFDD35" stroke-width="2.6" stroke-linecap="round" stroke-linejoin="round"/>
</svg>
