<svg width="25" height="24" viewBox="0 0 25 24" fill="none" xmlns="http://www.w3.org/2000/svg">
<path fill-rule="evenodd" clip-rule="evenodd" d="M7.43346 5.83334C7.43346 5.07856 8.04534 4.46667 8.80013 4.46667H16.2001C16.9549 4.46667 17.5668 5.07855 17.5668 5.83334V8.30001C17.5668 9.0548 16.9549 9.66667 16.2001 9.66667H8.80013C8.04534 9.66667 7.43346 9.05479 7.43346 8.30001V5.83334ZM8.93346 5.96667V8.16667H16.0668V5.96667H8.93346Z" fill="#006FB9"/>
<path d="M8.05013 12.3083C8.05013 11.7239 8.52394 11.25 9.10846 11.25C9.69298 11.25 10.1668 11.7239 10.1668 12.3083C10.1668 12.8928 9.69298 13.3667 9.10846 13.3667C8.52394 13.3667 8.05013 12.8928 8.05013 12.3083Z" fill="#006FB9"/>
<path d="M8.05013 15.3917C8.05013 15.9761 8.52394 16.45 9.10846 16.45C9.69298 16.45 10.1668 15.9761 10.1668 15.3917C10.1668 14.8072 9.69298 14.3333 9.10846 14.3333C8.52394 14.3333 8.05013 14.8072 8.05013 15.3917Z" fill="#006FB9"/>
<path d="M8.05013 18.475C8.05013 19.0595 8.52394 19.5333 9.10846 19.5333C9.69298 19.5333 10.1668 19.0595 10.1668 18.475C10.1668 17.8905 9.69298 17.4167 9.10846 17.4167C8.52394 17.4167 8.05013 17.8905 8.05013 18.475Z" fill="#006FB9"/>
<path d="M12.6283 11.25C13.2128 11.25 13.6866 11.7238 13.6866 12.3083C13.6866 12.8928 13.2128 13.3667 12.6283 13.3667C12.0438 13.3667 11.5699 12.8928 11.5699 12.3083C11.5699 11.7238 12.0438 11.25 12.6283 11.25Z" fill="#006FB9"/>
<path d="M12.6283 14.3333C13.2128 14.3333 13.6866 14.8072 13.6866 15.3917C13.6866 15.9762 13.2128 16.45 12.6283 16.45C12.0438 16.45 11.5699 15.9762 11.5699 15.3917C11.5699 14.8072 12.0438 14.3333 12.6283 14.3333Z" fill="#006FB9"/>
<path d="M11.5699 18.475C11.5699 19.0595 12.0438 19.5333 12.6283 19.5333C13.2128 19.5333 13.6867 19.0595 13.6867 18.475C13.6867 17.8905 13.2128 17.4167 12.6283 17.4167C12.0438 17.4167 11.5699 17.8905 11.5699 18.475Z" fill="#006FB9"/>
<path d="M14.8335 12.3083C14.8335 12.8928 15.3073 13.3667 15.8918 13.3667C16.4763 13.3667 16.95 12.8928 16.95 12.3083C16.95 11.7238 16.4763 11.25 15.8918 11.25C15.3073 11.25 14.8335 11.7238 14.8335 12.3083Z" fill="#006FB9"/>
<path d="M14.8335 15.3917C14.8335 15.9762 15.3073 16.45 15.8918 16.45C16.4763 16.45 16.95 15.9762 16.95 15.3917C16.95 14.8072 16.4763 14.3333 15.8918 14.3333C15.3073 14.3333 14.8335 14.8072 14.8335 15.3917Z" fill="#006FB9"/>
<path d="M14.8335 18.475C14.8335 19.0595 15.3073 19.5333 15.8918 19.5333C16.4763 19.5333 16.95 19.0595 16.95 18.475C16.95 17.8905 16.4763 17.4167 15.8918 17.4167C15.3073 17.4167 14.8335 17.8905 14.8335 18.475Z" fill="#006FB9"/>
<path fill-rule="evenodd" clip-rule="evenodd" d="M4.9668 3.98333C4.9668 2.88797 5.85476 2 6.95013 2H18.0501C19.1455 2 20.0335 2.88796 20.0335 3.98333V20.0167C20.0335 21.112 19.1455 22 18.0501 22H6.95013C5.85475 22 4.9668 21.112 4.9668 20.0167V3.98333ZM6.95013 3.5C6.68319 3.5 6.4668 3.71639 6.4668 3.98333V20.0167C6.4668 20.2836 6.6832 20.5 6.95013 20.5H18.0501C18.317 20.5 18.5335 20.2836 18.5335 20.0167V3.98333C18.5335 3.7164 18.3171 3.5 18.0501 3.5H6.95013Z" fill="#006FB9"/>
</svg>
