<svg width="24" height="24" viewBox="0 0 24 24" fill="none" xmlns="http://www.w3.org/2000/svg">
<path fill-rule="evenodd" clip-rule="evenodd" d="M7.68333 2C8.09755 2 8.43333 2.33579 8.43333 2.75V4.46667H15.5667V2.75C15.5667 2.33579 15.9025 2 16.3167 2C16.7309 2 17.0667 2.33579 17.0667 2.75V4.46667H20.0167C21.112 4.46667 22 5.35462 22 6.45V20.0167C22 21.112 21.112 22 20.0167 22H3.98333C2.88796 22 2 21.112 2 20.0167V6.45C2 5.35463 2.88797 4.46667 3.98333 4.46667H6.93333V2.75C6.93333 2.33579 7.26912 2 7.68333 2ZM6.93333 5.96667H3.98333C3.71639 5.96667 3.5 6.18306 3.5 6.45V9.4H20.5V6.45C20.5 6.18307 20.2836 5.96667 20.0167 5.96667H17.0667V7.06667C17.0667 7.48088 16.7309 7.81667 16.3167 7.81667C15.9025 7.81667 15.5667 7.48088 15.5667 7.06667V5.96667H8.43333V7.06667C8.43333 7.48088 8.09755 7.81667 7.68333 7.81667C7.26912 7.81667 6.93333 7.48088 6.93333 7.06667V5.96667ZM20.5 10.9H3.5V20.0167C3.5 20.2836 3.7164 20.5 3.98333 20.5H20.0167C20.2836 20.5 20.5 20.2836 20.5 20.0167V10.9ZM5.7 13.5417C5.7 12.9572 6.17382 12.4833 6.75833 12.4833C7.34285 12.4833 7.81667 12.9572 7.81667 13.5417C7.81667 14.1261 7.34285 14.6 6.75833 14.6C6.17382 14.6 5.7 14.1262 5.7 13.5417ZM10.9417 13.5417C10.9417 12.9572 11.4155 12.4833 12 12.4833C12.5845 12.4833 13.0583 12.9572 13.0583 13.5417C13.0583 14.1262 12.5845 14.6 12 14.6C11.4155 14.6 10.9417 14.1262 10.9417 13.5417ZM16.1833 13.5417C16.1833 12.9572 16.6572 12.4833 17.2417 12.4833C17.8259 12.4833 18.3001 12.957 18.3001 13.5417C18.3001 14.1264 17.8259 14.6 17.2417 14.6C16.6572 14.6 16.1833 14.1262 16.1833 13.5417ZM5.7 17.8583C5.7 17.2738 6.17382 16.8 6.75833 16.8C7.34285 16.8 7.81667 17.2739 7.81667 17.8583C7.81667 18.4428 7.34285 18.9167 6.75833 18.9167C6.17382 18.9167 5.7 18.4428 5.7 17.8583ZM10.9417 17.8583C10.9417 17.2738 11.4155 16.8 12 16.8C12.5847 16.8 13.0583 17.2741 13.0583 17.8583C13.0583 18.4426 12.5847 18.9167 12 18.9167C11.4155 18.9167 10.9417 18.4428 10.9417 17.8583ZM16.1833 17.8583C16.1833 17.2738 16.6572 16.8 17.2417 16.8C17.8259 16.8 18.3001 17.2736 18.3001 17.8583C18.3001 18.4431 17.8259 18.9167 17.2417 18.9167C16.6572 18.9167 16.1833 18.4428 16.1833 17.8583Z" fill="#006FB9"/>
</svg>
