<svg width="24" height="25" viewBox="0 0 24 25" fill="none" xmlns="http://www.w3.org/2000/svg">
<path fill-rule="evenodd" clip-rule="evenodd" d="M6.37457 11.4258C6.09843 11.4258 5.87457 11.6497 5.87457 11.9258V20.6758C5.87457 20.9519 6.09843 21.1758 6.37457 21.1758H17.6246C17.9007 21.1758 18.1246 20.9519 18.1246 20.6758V11.9258C18.1246 11.6497 17.9007 11.4258 17.6246 11.4258H6.37457ZM4.37457 11.9258C4.37457 10.8212 5.27 9.92578 6.37457 9.92578H17.6246C18.7292 9.92578 19.6246 10.8212 19.6246 11.9258V20.6758C19.6246 21.7804 18.7292 22.6758 17.6246 22.6758H6.37457C5.27 22.6758 4.37457 21.7804 4.37457 20.6758V11.9258Z" fill="#FFDD35"/>
<path fill-rule="evenodd" clip-rule="evenodd" d="M12.0004 3.92578C11.039 3.92578 10.117 4.3077 9.43717 4.98752C8.75735 5.66734 8.37543 6.58937 8.37543 7.55078V10.6758C8.37543 11.09 8.03964 11.4258 7.62543 11.4258C7.21122 11.4258 6.87543 11.09 6.87543 10.6758V7.55078C6.87543 6.19155 7.41538 4.88798 8.37651 3.92686C9.33763 2.96573 10.6412 2.42578 12.0004 2.42578C13.3596 2.42578 14.6632 2.96573 15.6243 3.92686C16.5854 4.88798 17.1254 6.19155 17.1254 7.55078V10.6758C17.1254 11.09 16.7896 11.4258 16.3754 11.4258C15.9612 11.4258 15.6254 11.09 15.6254 10.6758V7.55078C15.6254 6.58937 15.2435 5.66734 14.5637 4.98752C13.8838 4.3077 12.9618 3.92578 12.0004 3.92578Z" fill="#FFDD35"/>
<path d="M13.0004 16.0508C13.0004 16.6031 12.5527 17.0508 12.0004 17.0508C11.4481 17.0508 11.0004 16.6031 11.0004 16.0508C11.0004 15.4985 11.4481 15.0508 12.0004 15.0508C12.5527 15.0508 13.0004 15.4985 13.0004 16.0508Z" fill="#FFDD35"/>
</svg>
