<svg width="49" height="48" viewBox="0 0 49 48" fill="none" xmlns="http://www.w3.org/2000/svg">
<path fill-rule="evenodd" clip-rule="evenodd" d="M15.75 3.75C16.5784 3.75 17.25 4.42157 17.25 5.25V8.75H31.75V5.25C31.75 4.42157 32.4216 3.75 33.25 3.75C34.0784 3.75 34.75 4.42157 34.75 5.25V8.75H40.75C42.9591 8.75 44.75 10.5409 44.75 12.75V40.25C44.75 42.4591 42.9591 44.25 40.75 44.25H8.25C6.04086 44.25 4.25 42.4591 4.25 40.25V12.75C4.25 10.5409 6.04086 8.75 8.25 8.75H14.25V5.25C14.25 4.42157 14.9216 3.75 15.75 3.75ZM14.25 11.75H8.25C7.69772 11.75 7.25 12.1977 7.25 12.75V18.75H41.75V12.75C41.75 12.1977 41.3023 11.75 40.75 11.75H34.75V14C34.75 14.8284 34.0784 15.5 33.25 15.5C32.4216 15.5 31.75 14.8284 31.75 14V11.75H17.25V14C17.25 14.8284 16.5784 15.5 15.75 15.5C14.9216 15.5 14.25 14.8284 14.25 14V11.75ZM41.75 21.75H7.25V40.25C7.25 40.8023 7.69772 41.25 8.25 41.25H40.75C41.3023 41.25 41.75 40.8023 41.75 40.25V21.75Z" fill="#FFDD35"/>
<path d="M20.455 28.645C20.9152 28.645 21.2883 28.2719 21.2883 27.8117C21.2883 27.3514 20.9152 26.9783 20.455 26.9783C19.9948 26.9783 19.6217 27.3514 19.6217 27.8117C19.6217 28.2719 19.9948 28.645 20.455 28.645Z" fill="#FFDD35"/>
<path d="M28.545 28.645C29.0052 28.645 29.3783 28.2719 29.3783 27.8117C29.3783 27.3514 29.0052 26.9783 28.545 26.9783C28.0848 26.9783 27.7117 27.3514 27.7117 27.8117C27.7117 28.2719 28.0848 28.645 28.545 28.645Z" fill="#FFDD35"/>
<path d="M36.635 28.645C37.0952 28.645 37.4683 28.2719 37.4683 27.8117C37.4683 27.3514 37.0952 26.9783 36.635 26.9783C36.1748 26.9783 35.8017 27.3514 35.8017 27.8117C35.8017 28.2719 36.1748 28.645 36.635 28.645Z" fill="#FFDD35"/>
<path d="M12.365 36.145C12.8252 36.145 13.1983 35.7719 13.1983 35.3117C13.1983 34.8514 12.8252 34.4783 12.365 34.4783C11.9048 34.4783 11.5317 34.8514 11.5317 35.3117C11.5317 35.7719 11.9048 36.145 12.365 36.145Z" fill="#FFDD35"/>
<path d="M20.455 36.145C20.9152 36.145 21.2883 35.7719 21.2883 35.3117C21.2883 34.8514 20.9152 34.4783 20.455 34.4783C19.9948 34.4783 19.6217 34.8514 19.6217 35.3117C19.6217 35.7719 19.9948 36.145 20.455 36.145Z" fill="#FFDD35"/>
<path d="M28.545 36.145C29.0052 36.145 29.3783 35.7719 29.3783 35.3117C29.3783 34.8514 29.0052 34.4783 28.545 34.4783C28.0848 34.4783 27.7117 34.8514 27.7117 35.3117C27.7117 35.7719 28.0848 36.145 28.545 36.145Z" fill="#FFDD35"/>
<path fill-rule="evenodd" clip-rule="evenodd" d="M20.455 28.2283C20.6851 28.2283 20.8717 28.0418 20.8717 27.8117C20.8717 27.5815 20.6851 27.395 20.455 27.395C20.2249 27.395 20.0383 27.5815 20.0383 27.8117C20.0383 28.0418 20.2249 28.2283 20.455 28.2283ZM18.3717 27.8117C18.3717 26.6611 19.3044 25.7283 20.455 25.7283C21.6056 25.7283 22.5383 26.6611 22.5383 27.8117C22.5383 28.9623 21.6056 29.895 20.455 29.895C19.3044 29.895 18.3717 28.9623 18.3717 27.8117ZM28.545 28.2283C28.7751 28.2283 28.9617 28.0418 28.9617 27.8117C28.9617 27.5816 28.7751 27.395 28.545 27.395C28.3149 27.395 28.1283 27.5815 28.1283 27.8117C28.1283 28.0418 28.3149 28.2283 28.545 28.2283ZM26.4617 27.8117C26.4617 26.6611 27.3944 25.7283 28.545 25.7283C29.6956 25.7283 30.6283 26.6611 30.6283 27.8117C30.6283 28.9623 29.6956 29.895 28.545 29.895C27.3944 29.895 26.4617 28.9623 26.4617 27.8117ZM36.635 28.2283C36.8651 28.2283 37.0517 28.0418 37.0517 27.8117C37.0517 27.5816 36.8651 27.395 36.635 27.395C36.4049 27.395 36.2183 27.5815 36.2183 27.8117C36.2183 28.0418 36.4049 28.2283 36.635 28.2283ZM34.5517 27.8117C34.5517 26.6611 35.4844 25.7283 36.635 25.7283C37.7856 25.7283 38.7183 26.6611 38.7183 27.8117C38.7183 28.9623 37.7856 29.895 36.635 29.895C35.4844 29.895 34.5517 28.9623 34.5517 27.8117ZM12.365 35.7283C12.5951 35.7283 12.7817 35.5418 12.7817 35.3117C12.7817 35.0816 12.5951 34.895 12.365 34.895C12.1349 34.895 11.9483 35.0816 11.9483 35.3117C11.9483 35.5418 12.1349 35.7283 12.365 35.7283ZM10.2817 35.3117C10.2817 34.1611 11.2144 33.2283 12.365 33.2283C13.5156 33.2283 14.4483 34.1611 14.4483 35.3117C14.4483 36.4623 13.5156 37.395 12.365 37.395C11.2144 37.395 10.2817 36.4623 10.2817 35.3117ZM20.455 35.7283C20.6851 35.7283 20.8717 35.5418 20.8717 35.3117C20.8717 35.0816 20.6851 34.895 20.455 34.895C20.2249 34.895 20.0383 35.0816 20.0383 35.3117C20.0383 35.5418 20.2249 35.7283 20.455 35.7283ZM18.3717 35.3117C18.3717 34.1611 19.3044 33.2283 20.455 33.2283C21.6056 33.2283 22.5383 34.1611 22.5383 35.3117C22.5383 36.4623 21.6056 37.395 20.455 37.395C19.3044 37.395 18.3717 36.4623 18.3717 35.3117ZM28.545 35.7283C28.7751 35.7283 28.9617 35.5418 28.9617 35.3117C28.9617 35.0816 28.7751 34.895 28.545 34.895C28.3149 34.895 28.1283 35.0816 28.1283 35.3117C28.1283 35.5418 28.3149 35.7283 28.545 35.7283ZM26.4617 35.3117C26.4617 34.1611 27.3944 33.2283 28.545 33.2283C29.6956 33.2283 30.6283 34.1611 30.6283 35.3117C30.6283 36.4623 29.6956 37.395 28.545 37.395C27.3944 37.395 26.4617 36.4623 26.4617 35.3117Z" fill="#FFDD35"/>
</svg>
