<svg width="27" height="25" viewBox="0 0 27 25" fill="none" xmlns="http://www.w3.org/2000/svg">
<path fill-rule="evenodd" clip-rule="evenodd" d="M3.36426 5.25532C3.36426 3.99033 4.46118 2.96387 5.81301 2.96387C7.16399 2.96387 8.26091 3.99033 8.26176 5.25532C8.26176 6.52031 7.16484 7.56824 5.81301 7.56824C4.46118 7.56824 3.36426 6.52031 3.36426 5.25532ZM23.7513 22.0347V22.0339H23.7564V15.0394C23.7564 11.6177 22.9687 8.98181 18.6915 8.98181C16.6353 8.98181 15.2554 10.0371 14.6921 11.0376H14.6326V9.30126H10.5772V22.0339H14.8V15.7292C14.8 14.0691 15.1365 12.464 17.3346 12.464C19.5004 12.464 19.5327 14.3584 19.5327 15.8356V22.0347H23.7513ZM3.70106 9.30298H7.92898V22.0347H3.70106V9.30298Z" fill="white"/>
</svg>
