<svg width="57" height="57" viewBox="0 0 57 57" fill="none" xmlns="http://www.w3.org/2000/svg">
<path d="M37.0644 29.4775H22.6564C21.065 29.4775 19.7748 30.7677 19.7748 32.3591V41.0039C19.7748 42.5954 21.065 43.8855 22.6564 43.8855H37.0644C38.6559 43.8855 39.946 42.5954 39.946 41.0039V32.3591C39.946 30.7677 38.6559 29.4775 37.0644 29.4775Z" stroke="#FFDD35" stroke-width="3.50464" stroke-linecap="round" stroke-linejoin="round"/>
<path d="M39.947 33.8005L45.7102 30.9189V42.4453L39.947 39.5637V33.8005Z" stroke="#FFDD35" stroke-width="3.50464" stroke-linecap="round" stroke-linejoin="round"/>
<path d="M24.0964 49.6489L29.8596 43.8857L35.6227 49.6489" stroke="#FFDD35" stroke-width="3.50464" stroke-linecap="round" stroke-linejoin="round"/>
<path d="M19.7744 23.7144C24.5488 23.7144 28.4192 19.844 28.4192 15.0696C28.4192 10.2952 24.5488 6.4248 19.7744 6.4248C15 6.4248 11.1296 10.2952 11.1296 15.0696C11.1296 19.844 15 23.7144 19.7744 23.7144Z" stroke="#FFDD35" stroke-width="3.50464" stroke-linecap="round" stroke-linejoin="round"/>
<path d="M39.9468 23.7148C43.1297 23.7148 45.71 21.1346 45.71 17.9517C45.71 14.7687 43.1297 12.1885 39.9468 12.1885C36.7639 12.1885 34.1836 14.7687 34.1836 17.9517C34.1836 21.1346 36.7639 23.7148 39.9468 23.7148Z" stroke="#FFDD35" stroke-width="3.50464" stroke-linecap="round" stroke-linejoin="round"/>
<path fill-rule="evenodd" clip-rule="evenodd" d="M19.7377 8.14038C15.9311 8.14038 12.8453 11.2262 12.8453 15.0328C12.8453 18.8394 15.9311 21.9253 19.7377 21.9253C23.5443 21.9253 26.6302 18.8394 26.6302 15.0328C26.6302 11.2262 23.5443 8.14038 19.7377 8.14038ZM9.34064 15.0328C9.34064 9.29068 13.9956 4.63574 19.7377 4.63574C25.4799 4.63574 30.1348 9.29068 30.1348 15.0328C30.1348 20.775 25.4799 25.4299 19.7377 25.4299C13.9956 25.4299 9.34064 20.775 9.34064 15.0328ZM22.6195 31.1932C21.9958 31.1932 21.4902 31.6988 21.4902 32.3225V40.9672C21.4902 41.5909 21.9958 42.0965 22.6195 42.0965H29.8053H29.8416H37.0275C37.6511 42.0965 38.1567 41.5909 38.1567 40.9672V39.5426L38.1567 39.5262V33.7631L38.1567 33.7467V32.3225C38.1567 31.6988 37.6511 31.1932 37.0275 31.1932H22.6195ZM34.054 45.6012H37.0275C39.1348 45.6012 40.9135 44.1945 41.476 42.2689L44.8885 43.9751C45.4317 44.2467 46.0768 44.2177 46.5934 43.8984C47.11 43.5792 47.4245 43.0151 47.4245 42.4078V30.8815C47.4245 30.2741 47.11 29.7101 46.5934 29.3908C46.0768 29.0716 45.4317 29.0425 44.8885 29.3141L41.4759 31.0204C40.9133 29.095 39.1346 27.6886 37.0275 27.6886H22.6195C20.0603 27.6886 17.9856 29.7632 17.9856 32.3225V40.9672C17.9856 43.5265 20.0603 45.6012 22.6195 45.6012H25.5928L22.8212 48.3728C22.1368 49.0572 22.1368 50.1667 22.8212 50.851C23.5055 51.5353 24.615 51.5353 25.2993 50.851L29.8234 46.3269L34.3475 50.851C35.0318 51.5353 36.1414 51.5353 36.8257 50.851C37.51 50.1667 37.51 49.0572 36.8257 48.3728L34.054 45.6012ZM43.9198 39.5725L41.6614 38.4433V34.846L43.9198 33.7168V39.5725ZM35.8981 17.9144C35.8981 15.6993 37.6938 13.9036 39.909 13.9036C42.1241 13.9036 43.9198 15.6993 43.9198 17.9144C43.9198 20.1296 42.1241 21.9253 39.909 21.9253C37.6938 21.9253 35.8981 20.1296 35.8981 17.9144ZM39.909 10.3989C35.7583 10.3989 32.3934 13.7638 32.3934 17.9144C32.3934 22.0651 35.7583 25.43 39.909 25.43C44.0597 25.43 47.4245 22.0651 47.4245 17.9144C47.4245 13.7638 44.0597 10.3989 39.909 10.3989Z" fill="#FFDD35"/>
</svg>
