<svg width="18" height="19" viewBox="0 0 18 19" fill="none" xmlns="http://www.w3.org/2000/svg">
<path fill-rule="evenodd" clip-rule="evenodd" d="M9 3.03613C7.78166 3.03613 6.61322 3.52012 5.75173 4.38161C5.022 5.11134 4.56313 6.0613 4.43984 7.07527C4.6664 7.10346 4.87857 7.20629 5.0417 7.36943C5.2351 7.56283 5.34375 7.82513 5.34375 8.09863V12.7861C5.34375 13.0596 5.2351 13.3219 5.0417 13.5153C4.84831 13.7087 4.586 13.8174 4.3125 13.8174H3.84375C3.19728 13.8174 2.5773 13.5606 2.12018 13.1035C1.66306 12.6463 1.40625 12.0263 1.40625 11.3799V9.50488C1.40625 8.85842 1.66306 8.23843 2.12018 7.78131C2.44767 7.45381 2.85876 7.22914 3.3033 7.12805C3.42065 5.79527 4.00269 4.53966 4.95623 3.58612C6.02871 2.51364 7.48329 1.91113 9 1.91113C10.5167 1.91113 11.9713 2.51364 13.0438 3.58612C13.9973 4.53966 14.5793 5.79528 14.6967 7.12805C15.1412 7.22914 15.5523 7.45381 15.8798 7.78131C16.3369 8.23843 16.5938 8.85842 16.5938 9.50488V11.3799C16.5938 12.0263 16.3369 12.6463 15.8798 13.1035C15.5577 13.4256 15.1547 13.6482 14.7186 13.7516C14.7113 14.388 14.4553 14.9967 14.0048 15.4472C13.5477 15.9043 12.9277 16.1611 12.2812 16.1611H11.328C11.2533 16.3459 11.1418 16.5156 10.9982 16.6593C10.7169 16.9406 10.3353 17.0986 9.9375 17.0986H9C8.60217 17.0986 8.22064 16.9406 7.93934 16.6593C7.65804 16.378 7.5 15.9965 7.5 15.5986C7.5 15.2008 7.65804 14.8193 7.93934 14.538C8.22064 14.2567 8.60217 14.0986 9 14.0986H9.9375C10.3353 14.0986 10.7169 14.2567 10.9982 14.538C11.1418 14.6816 11.2533 14.8514 11.328 15.0361H12.2812C12.6293 15.0361 12.9632 14.8979 13.2093 14.6517C13.4344 14.4267 13.5692 14.1283 13.5907 13.8128C13.3527 13.7904 13.1287 13.6858 12.9583 13.5153C12.7649 13.3219 12.6562 13.0596 12.6562 12.7861V8.09863C12.6562 7.82513 12.7649 7.56283 12.9583 7.36943C13.1214 7.20629 13.3336 7.10346 13.5602 7.07527C13.4369 6.0613 12.978 5.11134 12.2483 4.38161C11.3868 3.52012 10.2183 3.03613 9 3.03613ZM3.84375 8.19238C3.49565 8.19238 3.16181 8.33066 2.91567 8.57681C2.66953 8.82295 2.53125 9.15679 2.53125 9.50488V11.3799C2.53125 11.728 2.66953 12.0618 2.91567 12.308C3.16181 12.5541 3.49565 12.6924 3.84375 12.6924H4.21875V8.19238H3.84375ZM13.7812 8.19238V12.6924H14.1562C14.5043 12.6924 14.8382 12.5541 15.0843 12.308C15.3305 12.0618 15.4688 11.728 15.4688 11.3799V9.50488C15.4688 9.15679 15.3305 8.82295 15.0843 8.57681C14.8382 8.33066 14.5043 8.19238 14.1562 8.19238H13.7812ZM9 15.2236C8.90055 15.2236 8.80516 15.2631 8.73483 15.3335C8.66451 15.4038 8.625 15.4992 8.625 15.5986C8.625 15.6981 8.66451 15.7935 8.73483 15.8638C8.80516 15.9341 8.90055 15.9736 9 15.9736H9.9375C10.037 15.9736 10.1323 15.9341 10.2027 15.8638C10.273 15.7935 10.3125 15.6981 10.3125 15.5986C10.3125 15.4992 10.273 15.4038 10.2027 15.3335C10.1323 15.2631 10.037 15.2236 9.9375 15.2236H9Z" fill="white"/>
</svg>
