<svg width="32" height="32" viewBox="0 0 32 32" fill="none" xmlns="http://www.w3.org/2000/svg">
<path fill-rule="evenodd" clip-rule="evenodd" d="M1.66669 8.36396C1.66669 6.83114 2.95469 5.66699 4.44447 5.66699H27.5556C29.0453 5.66699 30.3334 6.83114 30.3334 8.36396V23.6367C30.3334 25.1695 29.0453 26.3337 27.5556 26.3337H4.44447C2.95469 26.3337 1.66669 25.1695 1.66669 23.6367V8.36396ZM3.66669 12.7578V23.6367C3.66669 23.9783 3.97056 24.3337 4.44447 24.3337H27.5556C28.0295 24.3337 28.3334 23.9783 28.3334 23.6367V12.7578H3.66669ZM28.3334 10.7578H3.66669V8.36396C3.66669 8.02237 3.97056 7.66699 4.44447 7.66699H27.5556C28.0295 7.66699 28.3334 8.02237 28.3334 8.36396V10.7578ZM13.2222 16.8489C13.2222 16.2966 13.67 15.8489 14.2222 15.8489H24C24.5523 15.8489 25 16.2966 25 16.8489C25 17.4012 24.5523 17.8489 24 17.8489H14.2222C13.67 17.8489 13.2222 17.4012 13.2222 16.8489ZM16.7778 20.2426C16.7778 19.6903 17.2255 19.2426 17.7778 19.2426H24C24.5523 19.2426 25 19.6903 25 20.2426C25 20.7948 24.5523 21.2426 24 21.2426H17.7778C17.2255 21.2426 16.7778 20.7948 16.7778 20.2426Z" fill="#FFDD35"/>
</svg>
