<svg width="41" height="41" viewBox="0 0 41 41" fill="none" xmlns="http://www.w3.org/2000/svg">
<path fill-rule="evenodd" clip-rule="evenodd" d="M26.5794 6.06738C22.1611 6.06738 18.5794 9.64911 18.5794 14.0674C18.5794 18.4857 22.1611 22.0674 26.5794 22.0674C30.9977 22.0674 34.5794 18.4857 34.5794 14.0674C34.5794 9.64911 30.9977 6.06738 26.5794 6.06738ZM16.0794 14.0674C16.0794 8.26839 20.7804 3.56738 26.5794 3.56738C32.3784 3.56738 37.0794 8.26839 37.0794 14.0674C37.0794 19.8664 32.3784 24.5674 26.5794 24.5674C20.7804 24.5674 16.0794 19.8664 16.0794 14.0674ZM26.5794 6.9933C27.2697 6.9933 27.8294 7.55295 27.8294 8.2433V8.67886H28.7718C29.4622 8.67886 30.0218 9.2385 30.0218 9.92886C30.0218 10.6192 29.4622 11.1789 28.7718 11.1789H26.5811C26.5805 11.1789 26.58 11.1789 26.5794 11.1789C26.5788 11.1789 26.5782 11.1789 26.5776 11.1789H25.7981C25.786 11.1789 25.7738 11.1787 25.7617 11.1783C25.6757 11.1758 25.59 11.1903 25.5096 11.2209C25.4292 11.2515 25.3556 11.2976 25.293 11.3567C25.2305 11.4158 25.1802 11.4866 25.145 11.5651C25.1137 11.6349 25.095 11.7095 25.0894 11.7856C25.0966 11.898 25.1353 12.0064 25.2013 12.0981C25.2728 12.1974 25.373 12.2725 25.4883 12.3132L25.5177 12.324L28.5198 13.4703C29.1088 13.6822 29.6201 14.0676 29.986 14.5759C30.3554 15.0889 30.5591 15.7026 30.5698 16.3347C30.5701 16.3536 30.57 16.3725 30.5695 16.3913C30.5577 16.8057 30.4644 17.2137 30.2949 17.5919C30.1254 17.9702 29.8831 18.3114 29.5816 18.5959C29.2802 18.8805 28.9257 19.1028 28.5383 19.2503C28.3092 19.3375 28.0713 19.3975 27.8294 19.4295V19.8915C27.8294 20.5818 27.2697 21.1415 26.5794 21.1415C25.889 21.1415 25.3294 20.5818 25.3294 19.8915V19.4559H24.3867C23.6963 19.4559 23.1367 18.8963 23.1367 18.2059C23.1367 17.5155 23.6963 16.9559 24.3867 16.9559H27.3604C27.3725 16.9559 27.3847 16.9561 27.3968 16.9564C27.4828 16.9589 27.5685 16.9445 27.6489 16.9139C27.7293 16.8833 27.8029 16.8371 27.8654 16.778C27.928 16.719 27.9783 16.6482 28.0135 16.5697C28.0448 16.4999 28.0635 16.4253 28.069 16.3492C28.0619 16.2367 28.0232 16.1284 27.9572 16.0366C27.8857 15.9373 27.7855 15.8623 27.6702 15.8215L27.6408 15.8107L24.6387 14.6645C24.0496 14.4525 23.5384 14.0671 23.1725 13.5589C22.8031 13.0458 22.5994 12.4321 22.5887 11.8C22.5884 11.7812 22.5885 11.7623 22.589 11.7434C22.6008 11.3291 22.694 10.9211 22.8636 10.5428C23.0331 10.1645 23.2754 9.82338 23.5769 9.53883C23.8783 9.25427 24.2328 9.03191 24.6202 8.88444C24.8494 8.7972 25.0874 8.73719 25.3294 8.70522V8.2433C25.3294 7.55295 25.889 6.9933 26.5794 6.9933ZM4.99609 22.0674C5.68645 22.0674 6.24609 22.627 6.24609 23.3174V24.1229H14.2461C15.6679 24.1229 17.0316 24.6878 18.037 25.6932C18.7422 26.3984 19.2307 27.2799 19.4595 28.2341H23.4961C24.9179 28.2341 26.2816 28.7989 27.287 29.8043C28.2924 30.8097 28.8572 32.1733 28.8572 33.5952C28.8572 33.9267 28.7255 34.2446 28.4911 34.479C28.2567 34.7135 27.9387 34.8452 27.6072 34.8452H6.24609V35.6507C6.24609 36.3411 5.68645 36.9007 4.99609 36.9007C4.30574 36.9007 3.74609 36.3411 3.74609 35.6507V23.3174C3.74609 22.627 4.30574 22.0674 4.99609 22.0674ZM6.24609 26.6229V32.3452H26.0697C25.9318 32.0612 25.7466 31.7995 25.5192 31.5721C24.9826 31.0355 24.2549 30.734 23.4961 30.734H13.2183C12.528 30.734 11.9683 30.1744 11.9683 29.484C11.9683 28.7937 12.528 28.234 13.2183 28.234L16.8197 28.2341C16.6818 27.9501 16.4966 27.6884 16.2692 27.4609C15.7326 26.9244 15.0049 26.6229 14.2461 26.6229H6.24609Z" fill="#FFDD35"/>
</svg>
