<svg width="187" height="32" viewBox="0 0 187 32" fill="none" xmlns="http://www.w3.org/2000/svg">
<g clip-path="url(#clip0_1054_13064)">
<path d="M42.3964 0H1.81877C1.10866 0 0.5 0.592592 0.5 1.28395V30.6173C0.5 31.3086 1.10866 31.9012 1.81877 31.9012H42.3964C43.1066 31.9012 43.7152 31.3086 43.7152 30.6173V1.28395C43.7152 0.592592 43.208 0 42.3964 0Z" fill="white"/>
<path d="M13.6872 21.8272C12.7742 21.8272 11.9627 21.0371 11.9627 20.1482C11.9627 19.2593 12.7742 18.4692 13.6872 18.4692C14.6002 18.4692 15.4118 19.2593 15.4118 20.1482C15.4118 21.1358 14.7016 21.8272 13.6872 21.8272ZM7.19478 17.4815C7.19478 16.5926 8.00633 15.8025 8.91933 15.8025C9.83233 15.8025 10.6439 16.5926 10.6439 17.4815C10.6439 18.3704 9.83233 19.1605 8.91933 19.1605C8.00633 19.1605 7.19478 18.4692 7.19478 17.4815ZM13.6872 13.2346C14.6002 13.2346 15.4118 14.0247 15.4118 14.9136C15.4118 15.8025 14.6002 16.5926 13.6872 16.5926C12.7742 16.5926 11.9627 15.8025 11.9627 14.9136C12.0641 13.926 12.7742 13.2346 13.6872 13.2346ZM39.1497 15.9013H17.3392C17.4406 15.605 17.5421 15.2099 17.5421 14.8149C17.5421 12.7408 15.8175 11.0618 13.6872 11.0618C11.8612 11.0618 10.441 12.247 10.0352 13.926C9.62944 13.8272 9.32511 13.8272 8.91933 13.8272C6.789 13.8272 5.06445 15.5062 5.06445 17.5803C5.06445 19.6544 6.789 21.3334 8.91933 21.3334C9.32511 21.3334 9.62944 21.2346 10.0352 21.1358C10.441 22.7161 11.9627 24 13.6872 24C15.8175 24 17.5421 22.321 17.5421 20.247C17.5421 19.8519 17.4406 19.5556 17.3392 19.1605H32.15V23.605H33.8746V21.3334H35.5991V23.5062H37.3237V19.0618H39.0483V15.9013H39.1497Z" fill="#006FB9"/>
<path d="M73.0324 22.321C72.9309 22.321 73.0324 22.321 73.0324 22.321C70.4963 22.321 68.7717 20.4445 68.7717 18.2716C68.7717 16.0988 70.4963 14.2222 72.9309 14.2222C75.3656 14.2222 77.0901 16.0988 77.0901 18.2716C77.0901 20.4445 75.467 22.321 73.0324 22.321ZM73.0324 11.2593C68.9746 11.2593 65.7284 14.1235 65.627 18.1729C65.627 22.321 68.9746 25.0864 73.0324 25.0864C74.554 25.0864 75.9743 24.6914 77.1916 23.9013V25.0864H80.3364V18.1729C80.3364 14.1235 76.9887 11.2593 73.0324 11.2593Z" fill="white"/>
<path d="M88.756 11.358C87.5386 11.358 86.4228 11.6543 85.4083 12.2469V11.2593H82.1621V17.7778V19.4568V25.0864H85.4083V19.4568V17.7778C85.4083 16 86.93 14.5185 88.756 14.5185C90.582 14.5185 92.1036 16 92.1036 17.7778V25.0864H95.3498V17.7778C95.3498 14.2222 92.408 11.358 88.756 11.358Z" fill="white"/>
<path d="M57.4103 22.5186C59.3377 22.5186 60.6565 21.5309 60.6565 19.8519C60.6565 18.2716 59.5406 17.0865 57.5117 17.0865H54.0626V22.5186H57.4103ZM57.0045 14.4198C58.9319 14.4198 60.0478 13.3334 60.0478 11.8519C60.0478 10.2716 58.9319 9.28399 56.9031 9.28399H54.0626V14.5186H57.0045V14.4198ZM57.4103 6.51855C61.0623 6.51855 63.294 8.59263 63.294 11.5556C63.294 13.5309 62.0767 15.0124 60.4536 15.605C62.4825 16.0988 63.9027 17.8766 63.9027 20.0494C63.9027 23.0124 61.468 25.1852 57.9175 25.1852H50.8164V6.51855H57.4103Z" fill="white"/>
<path d="M121.726 22.2222C119.19 22.2222 117.567 20.4445 117.567 18.1728C117.567 16 119.19 14.1235 121.624 14.1235C124.059 14.1235 125.682 15.9012 125.682 18.1728C125.784 20.4445 124.16 22.2222 121.726 22.2222ZM121.624 11.358C117.668 11.358 114.32 14.1235 114.32 18.1728C114.32 22.2222 117.567 24.9877 121.624 24.9877C125.581 24.9877 128.928 22.2222 128.928 18.1728C128.928 14.1235 125.581 11.358 121.624 11.358Z" fill="white"/>
<path d="M111.278 19.8519C110.06 21.2346 108.234 22.1235 106.307 22.1235C102.655 22.1235 99.8143 19.2593 99.8143 15.8025C99.8143 12.2469 102.756 9.48152 106.307 9.48152C108.336 9.48152 110.06 10.3704 111.278 11.7531L113.509 9.77781C111.683 7.8025 109.046 6.51855 106.104 6.51855C100.727 6.51855 96.3652 10.6667 96.3652 15.8025C96.3652 20.9383 100.727 25.0865 106.104 25.0865C109.046 25.0865 111.683 23.8025 113.509 21.8272L111.278 19.8519Z" fill="white"/>
<path d="M153.072 22.2222C150.535 22.2222 148.912 20.4445 148.912 18.1728C148.912 16 150.535 14.1235 152.97 14.1235C155.405 14.1235 157.028 15.9012 157.028 18.1728C157.231 20.3457 155.506 22.2222 153.072 22.2222ZM153.072 11.358C149.115 11.358 145.768 14.1235 145.768 18.1728V30.6173H148.912V23.9012C150.13 24.5926 151.55 25.0864 153.072 25.0864C157.028 25.0864 160.376 22.321 160.376 18.2716C160.376 14.1235 157.028 11.358 153.072 11.358Z" fill="white"/>
<path d="M137.349 22.2222C134.813 22.2222 133.19 20.4445 133.19 18.1728C133.19 16 134.813 14.1235 137.247 14.1235C139.682 14.1235 141.305 15.9012 141.305 18.1728C141.508 20.3457 139.784 22.2222 137.349 22.2222ZM137.349 11.358C133.393 11.358 130.045 14.1235 130.045 18.1728V30.6173H133.19V23.9012C134.407 24.5926 135.827 25.0864 137.349 25.0864C141.305 25.0864 144.653 22.321 144.653 18.2716C144.653 14.1235 141.305 11.358 137.349 11.358Z" fill="white"/>
<path d="M164.231 16.7901C164.231 15.6049 165.854 13.9259 167.984 13.9259C169.404 13.9259 171.332 15.0124 171.332 16.7901H164.231ZM167.883 11.358C164.231 11.358 161.188 14.1235 161.188 18.1728C161.188 22.2222 164.231 24.9877 167.883 24.9877C170.115 24.9877 172.448 24.2963 173.665 22.6173L171.839 20.8395C171.028 21.7284 169.81 22.321 168.289 22.321C165.854 22.321 164.231 20.9383 164.231 18.963H174.578C174.578 18.6667 174.578 18.4691 174.578 18.1728C174.578 14.1235 171.941 11.358 167.883 11.358Z" fill="white"/>
<path d="M178.94 18.1729V6.61731H175.795V18.1729C175.795 22.2222 179.041 24.9877 182.896 24.9877V22.1235C180.563 22.1235 178.94 20.3457 178.94 18.1729Z" fill="white"/>
<path d="M185.129 23.5061H185.332C185.535 23.5061 185.636 23.4074 185.636 23.3086C185.636 23.2099 185.535 23.1111 185.332 23.1111C185.23 23.1111 185.23 23.1111 185.129 23.1111V23.5061Z" fill="#1B1A16"/>
<path d="M185.129 24.2963H184.824V22.9136C184.926 22.9136 185.129 22.9136 185.331 22.9136C185.636 22.9136 185.737 22.9136 185.839 23.0123C185.94 23.1111 185.94 23.2099 185.94 23.3086C185.94 23.5062 185.839 23.6049 185.636 23.6049C185.737 23.7037 185.839 23.8025 185.94 23.9012C185.94 24.0988 186.042 24.1975 186.042 24.2963H185.636C185.636 24.1975 185.534 24.0988 185.534 24C185.534 23.8025 185.433 23.8025 185.23 23.8025H185.129V24.2963Z" fill="#1B1A16"/>
<path d="M184.316 23.605C184.316 24.1976 184.824 24.6914 185.432 24.6914C186.041 24.6914 186.548 24.1976 186.548 23.605C186.548 23.0124 186.041 22.5186 185.432 22.5186C184.722 22.5186 184.316 23.0124 184.316 23.605Z" fill="#1B1A16"/>
<path d="M186.854 23.6049C186.854 24.395 186.245 24.9876 185.332 24.9876C184.521 24.9876 183.811 24.395 183.811 23.6049C183.811 22.8148 184.419 22.2222 185.332 22.2222C186.245 22.2222 186.854 22.8148 186.854 23.6049Z" fill="white"/>
</g>
<defs>
<clipPath id="clip0_1054_13064">
<rect x="0.5" width="186.353" height="32" rx="2" fill="white"/>
</clipPath>
</defs>
</svg>
