<svg width="20" height="20" viewBox="0 0 20 20" fill="none" xmlns="http://www.w3.org/2000/svg">
<path d="M7.50238 14.484C7.35072 14.6357 7.08405 14.6357 6.93238 14.484L3.24655 10.7982C3.20988 10.7615 3.17988 10.7165 3.15988 10.6682C3.13905 10.6182 3.12905 10.5673 3.12905 10.514C3.12905 10.4607 3.13905 10.409 3.15988 10.359C3.17988 10.3098 3.20988 10.2665 3.24738 10.2282L10.4424 3.034C10.479 2.99734 10.524 2.9665 10.5715 2.94734C10.6215 2.92734 10.6732 2.9165 10.7274 2.9165H14.4124C14.5182 2.9165 14.6215 2.959 14.6974 3.03567C14.7732 3.11067 14.8149 3.2115 14.8149 3.31984V7.00567C14.8149 7.11317 14.7732 7.214 14.6974 7.28984C14.4532 7.534 14.4532 7.92984 14.6974 8.174C14.9415 8.41817 15.3374 8.41817 15.5815 8.174C15.8932 7.86234 16.0649 7.44734 16.0649 7.00567V3.319C16.0649 2.8765 15.8924 2.46067 15.5815 2.1515C15.274 1.84317 14.8482 1.6665 14.4124 1.6665H10.7274C10.509 1.6665 10.2965 1.709 10.094 1.79234C9.89238 1.8765 9.71238 1.9965 9.55822 2.15067L2.36405 9.34484C2.20905 9.49984 2.08905 9.67984 2.00572 9.88067C1.92155 10.0823 1.87988 10.2957 1.87988 10.514C1.87988 10.7323 1.92238 10.9448 2.00572 11.1465C2.08988 11.349 2.21072 11.5298 2.36405 11.6832L6.04905 15.3682C6.36072 15.6798 6.77572 15.8515 7.21738 15.8515C7.65905 15.8515 8.07405 15.6798 8.38572 15.3682C8.62988 15.124 8.62988 14.7282 8.38572 14.484C8.14155 14.2398 7.74655 14.2398 7.50238 14.484Z" fill="#006FB9"/>
<path d="M12.8707 5.74234C13.3576 5.74234 13.7524 5.3476 13.7524 4.86067C13.7524 4.37374 13.3576 3.979 12.8707 3.979C12.3838 3.979 11.989 4.37374 11.989 4.86067C11.989 5.3476 12.3838 5.74234 12.8707 5.74234Z" fill="#006FB9"/>
<path d="M14.3232 13.2998L12.9057 12.7315C12.844 12.7073 12.7915 12.6607 12.759 12.6023C12.7265 12.5423 12.7149 12.4715 12.7282 12.4048C12.7415 12.3382 12.7774 12.2782 12.8332 12.2315C12.884 12.1898 12.9507 12.1665 13.0199 12.1665H14.4132C14.7582 12.1665 15.0382 11.8865 15.0382 11.5415C15.0382 11.1965 14.7582 10.9165 14.4132 10.9165H13.9865C13.9332 10.6265 13.6899 10.4032 13.384 10.4032C13.0632 10.4032 12.809 10.6482 12.7732 10.9598C12.504 11.004 12.2457 11.0957 12.039 11.2665C11.7607 11.4932 11.5699 11.8132 11.5007 12.1673C11.4324 12.5198 11.4899 12.8865 11.6615 13.2023C11.8349 13.5182 12.1149 13.7648 12.444 13.894L13.8565 14.4607C13.9199 14.4857 13.9724 14.5323 14.0049 14.5923C14.0374 14.6523 14.049 14.7215 14.0357 14.7882C14.0224 14.8557 13.9857 14.9173 13.9349 14.9598C13.8824 15.0032 13.8149 15.0273 13.7465 15.0273H12.3557C12.0107 15.0273 11.7307 15.3073 11.7307 15.6523C11.7307 15.9973 12.0107 16.2773 12.3557 16.2773H12.7807C12.834 16.5682 13.0765 16.7915 13.3832 16.7915C13.7049 16.7915 13.959 16.5457 13.994 16.234C14.2607 16.189 14.5182 16.0973 14.7315 15.9223C15.0065 15.6948 15.1957 15.3757 15.2632 15.0265C15.3315 14.6757 15.2749 14.3098 15.104 13.9948C14.9332 13.6807 14.6557 13.4332 14.3232 13.2998Z" fill="#006FB9"/>
<path d="M13.384 8.86067C10.7724 8.86067 8.64822 10.9848 8.64822 13.5965C8.64822 16.2082 10.7724 18.3332 13.384 18.3332C15.9957 18.3332 18.1207 16.2082 18.1207 13.5965C18.1207 10.9848 15.9949 8.86067 13.384 8.86067ZM13.384 17.0832C11.4615 17.0832 9.89822 15.519 9.89822 13.5965C9.89822 11.674 11.4615 10.1107 13.384 10.1107C15.3065 10.1107 16.8707 11.674 16.8707 13.5965C16.8707 15.519 15.3057 17.0832 13.384 17.0832Z" fill="#006FB9"/>
</svg>
