<svg width="24" height="24" viewBox="0 0 24 24" fill="none" xmlns="http://www.w3.org/2000/svg">
<g id="Retail.hogar.Google Keep 4.hogar">
<path id="Vector" fill-rule="evenodd" clip-rule="evenodd" d="M11.7732 2.00351C13.0813 1.96304 14.3763 2.2729 15.5244 2.90101C16.6724 3.52913 17.6317 4.45268 18.303 5.57606C18.9743 6.69943 19.3331 7.9818 19.3423 9.29041C19.352 10.6762 18.9693 12.0365 18.2385 13.2139C17.5908 14.2574 16.6932 15.1195 15.63 15.7242V18.4114C15.63 18.8271 15.4648 19.2258 15.1709 19.5198C15.0619 19.6288 14.9384 19.7201 14.805 19.7919V20.4326C14.805 20.8483 14.6399 21.247 14.3459 21.5409C14.052 21.8349 13.6533 22 13.2376 22H10.7627C10.347 22 9.94835 21.8349 9.6544 21.5409C9.36045 21.247 9.19531 20.8483 9.19531 20.4326V19.7919C9.06193 19.7201 8.93848 19.6288 8.82944 19.5198C8.53549 19.2258 8.37035 18.8271 8.37035 18.4114V15.7241C7.3737 15.1573 6.52164 14.3636 5.88475 13.4049C5.1606 12.3149 4.74095 11.0512 4.66924 9.74447C4.59752 8.43779 4.87636 7.13569 5.47687 5.97296C6.07738 4.81023 6.97775 3.82914 8.08477 3.13123C9.19179 2.43333 10.4652 2.04399 11.7732 2.00351ZM9.85528 17.4627V18.4114C9.85528 18.4273 9.85986 18.4427 9.86828 18.4559C9.89116 18.4538 9.91434 18.4527 9.93777 18.4527H14.0626C14.086 18.4527 14.1092 18.4538 14.1321 18.4559C14.1405 18.4427 14.1451 18.4273 14.1451 18.4114V17.4627H9.85528ZM14.1451 15.9778H9.85528V15.2766C9.85528 14.9925 9.69314 14.7333 9.43766 14.609C8.49891 14.1522 7.6993 13.4528 7.12161 12.5833C6.54392 11.7137 6.20914 10.7055 6.15193 9.6631C6.09472 8.62069 6.31716 7.58194 6.79622 6.65437C7.27528 5.7268 7.99355 4.94412 8.87668 4.38737C9.75981 3.83062 10.7757 3.52002 11.8192 3.48773C12.8626 3.45544 13.8958 3.70263 14.8117 4.20371C15.7275 4.7048 16.4928 5.44156 17.0283 6.33773C17.5638 7.2339 17.85 8.25691 17.8574 9.30085C17.8652 10.4064 17.5599 11.4915 16.9768 12.4308C16.3938 13.3702 15.5569 14.1253 14.5627 14.6089C14.3072 14.7332 14.1451 14.9925 14.1451 15.2766V15.9778ZM10.6802 19.9789V20.4326C10.6802 20.4545 10.6889 20.4754 10.7044 20.4909C10.7199 20.5064 10.7409 20.5151 10.7627 20.5151H13.2376C13.2595 20.5151 13.2805 20.5064 13.2959 20.4909C13.3114 20.4754 13.3201 20.4545 13.3201 20.4326V19.9789H10.6802Z" fill="#006FB9"/>
</g>
</svg>
