<svg width="21" height="22" viewBox="0 0 21 22" fill="none" xmlns="http://www.w3.org/2000/svg">
<path fill-rule="evenodd" clip-rule="evenodd" d="M8.62209 18.4054C9.01953 18.2887 9.4363 18.5163 9.55297 18.9137C9.67662 19.335 10.0631 19.6243 10.5021 19.6243C10.9411 19.6243 11.3276 19.335 11.4512 18.9137C11.5679 18.5163 11.9846 18.2887 12.3821 18.4054C12.7795 18.522 13.0071 18.9388 12.8905 19.3363C12.5793 20.3962 11.6068 21.1243 10.5021 21.1243C9.3974 21.1243 8.42487 20.3962 8.11371 19.3363C7.99703 18.9388 8.22464 18.522 8.62209 18.4054Z" fill="#AB5C00"/>
<path fill-rule="evenodd" clip-rule="evenodd" d="M10.5 0.875C10.9142 0.875 11.25 1.21079 11.25 1.625V3.5C11.25 3.91421 10.9142 4.25 10.5 4.25C10.0858 4.25 9.75001 3.91421 9.75001 3.5V1.625C9.75001 1.21079 10.0858 0.875 10.5 0.875Z" fill="#AB5C00"/>
<path fill-rule="evenodd" clip-rule="evenodd" d="M10.5 4.25C7.46244 4.25 5.00001 6.71243 5.00001 9.75C5.00001 12.4475 4.68069 14.2394 4.34434 15.3792C4.29078 15.5606 4.23679 15.7256 4.1836 15.875H16.7474C16.7182 15.7935 16.689 15.7073 16.6601 15.6162C16.3168 14.5344 16 12.7332 16 9.75C16 6.71243 13.5376 4.25 10.5 4.25ZM18.5073 16.0725C18.4981 16.0617 18.474 16.0318 18.4391 15.9764C18.3613 15.8532 18.2301 15.6044 18.0899 15.1625C17.8082 14.2748 17.5 12.6385 17.5 9.75C17.5 5.88401 14.366 2.75 10.5 2.75C6.63401 2.75 3.50001 5.88401 3.50001 9.75C3.50001 12.3309 3.19432 13.9765 2.90567 14.9546C2.76143 15.4434 2.62142 15.7656 2.52578 15.9551C2.47793 16.0499 2.44106 16.1117 2.4201 16.1448C2.41014 16.1605 2.40374 16.1698 2.40144 16.1731C2.23165 16.3979 2.20204 16.6995 2.32575 16.9534C2.45138 17.2114 2.71313 17.375 3.00001 17.375H18C18.3183 17.375 18.6019 17.1741 18.7075 16.8738C18.8076 16.5893 18.7272 16.2743 18.5073 16.0725Z" fill="#AB5C00"/>
</svg>
