<svg width="24" height="24" viewBox="0 0 24 24" fill="none" xmlns="http://www.w3.org/2000/svg">
<path d="M16.5324 7.3536C16.8376 7.59738 16.8894 8.04503 16.6482 8.35347L10.5138 16.1974C10.2155 16.5901 9.74848 16.8142 9.25843 16.7995C8.76903 16.7847 8.31662 16.5334 8.0419 16.1243L6.12863 13.3801C5.90458 13.0587 5.98071 12.6146 6.2987 12.3882C6.61669 12.1617 7.0561 12.2387 7.28017 12.5601L9.19754 15.3102L9.20708 15.3242C9.22804 15.3558 9.26283 15.3753 9.30049 15.3764C9.33815 15.3775 9.37403 15.3603 9.39683 15.3299L9.40511 15.3191L15.5431 7.47066C15.7842 7.16223 16.2272 7.10982 16.5324 7.3536Z" fill="#FFDD35"/>
<path d="M16.5324 7.3536C16.8376 7.59738 16.8894 8.04503 16.6482 8.35347L10.5138 16.1974C10.2155 16.5901 9.74848 16.8142 9.25843 16.7995C8.76903 16.7847 8.31662 16.5334 8.0419 16.1243L6.12863 13.3801C5.90458 13.0587 5.98071 12.6146 6.2987 12.3882C6.61669 12.1617 7.0561 12.2387 7.28017 12.5601L9.19754 15.3102L9.20708 15.3242C9.22804 15.3558 9.26283 15.3753 9.30049 15.3764C9.33815 15.3775 9.37403 15.3603 9.39683 15.3299L9.40511 15.3191L15.5431 7.47066C15.7842 7.16223 16.2272 7.10982 16.5324 7.3536Z" stroke="#FFDD35"/>
<path d="M1.875 11.999C1.875 6.40714 6.40812 1.87402 12 1.87402C17.5919 1.87402 22.125 6.40714 22.125 11.999C22.125 17.5909 17.5919 22.124 12 22.124C6.40812 22.124 1.875 17.5909 1.875 11.999ZM12 3.37402C7.23654 3.37402 3.375 7.23557 3.375 11.999C3.375 16.7625 7.23654 20.624 12 20.624C16.7635 20.624 20.625 16.7625 20.625 11.999C20.625 7.23557 16.7635 3.37402 12 3.37402Z" fill="#FFDD35"/>
<path d="M1.875 11.999C1.875 6.40714 6.40812 1.87402 12 1.87402C17.5919 1.87402 22.125 6.40714 22.125 11.999C22.125 17.5909 17.5919 22.124 12 22.124C6.40812 22.124 1.875 17.5909 1.875 11.999ZM12 3.37402C7.23654 3.37402 3.375 7.23557 3.375 11.999C3.375 16.7625 7.23654 20.624 12 20.624C16.7635 20.624 20.625 16.7625 20.625 11.999C20.625 7.23557 16.7635 3.37402 12 3.37402Z" stroke="#FFDD35"/>
</svg>
