<svg width="24" height="24" viewBox="0 0 24 24" fill="none" xmlns="http://www.w3.org/2000/svg">
<path d="M14.4667 7.55003H12.75V6.45001C12.75 6.0358 12.4142 5.70001 12 5.70001C11.5858 5.70001 11.25 6.0358 11.25 6.45001V7.55003H11.0324C10.7378 7.53065 10.4423 7.57318 10.1648 7.67502C9.87679 7.78077 9.61519 7.94793 9.39821 8.16491C9.18124 8.38189 9.01407 8.64348 8.90833 8.93154C8.80594 9.21045 8.76351 9.50769 8.78365 9.80389C8.79897 10.5746 9.36386 11.1445 9.83644 11.5215C10.3485 11.93 11.013 12.311 11.6114 12.6541L11.627 12.663C12.2592 13.0255 12.8216 13.3489 13.2313 13.6721C13.6816 14.0274 13.7166 14.2066 13.7166 14.2283L13.7168 14.2411C13.7184 14.3347 13.7011 14.4276 13.6661 14.5144C13.631 14.6011 13.5789 14.6799 13.5127 14.7461C13.4465 14.8122 13.3677 14.8644 13.281 14.8994C13.1943 14.9345 13.1013 14.9516 13.0078 14.95H12.0051L12 14.95L11.9949 14.95H9.53334C9.11912 14.95 8.78334 15.2858 8.78334 15.7C8.78334 16.1142 9.11912 16.45 9.53334 16.45H11.25V17.55C11.25 17.9642 11.5858 18.3 12 18.3C12.4142 18.3 12.75 17.9642 12.75 17.55V16.45H12.9891C13.2815 16.4541 13.5719 16.3998 13.8431 16.2902C14.1165 16.1796 14.3648 16.0152 14.5734 15.8067C14.7819 15.5982 14.9463 15.3498 15.0568 15.0764C15.1665 14.8049 15.2209 14.5142 15.2167 14.2214C15.2133 13.4408 14.6337 12.8679 14.1604 12.4945C13.6584 12.0985 13.0086 11.726 12.4197 11.3885L12.373 11.3617C11.7421 11 11.1804 10.6749 10.7719 10.349C10.326 9.99325 10.2833 9.80701 10.2833 9.77181C10.2833 9.75137 10.2825 9.73094 10.2808 9.71057C10.2735 9.62165 10.2857 9.53221 10.3164 9.44846C10.3472 9.36471 10.3958 9.28865 10.4589 9.22557C10.522 9.16248 10.598 9.11388 10.6818 9.08314C10.7655 9.05239 10.855 9.04024 10.9439 9.04752C10.9642 9.04919 10.9847 9.05003 11.0051 9.05003H14.4667C14.8809 9.05003 15.2167 8.71424 15.2167 8.30003C15.2167 7.88582 14.8809 7.55003 14.4667 7.55003Z" fill="#006FB9"/>
<path fill-rule="evenodd" clip-rule="evenodd" d="M12 2C6.47715 2 2 6.47715 2 12C2 17.5228 6.47715 22 12 22C17.5228 22 22 17.5228 22 12C22 6.47715 17.5228 2 12 2ZM3.5 12C3.5 7.30558 7.30558 3.5 12 3.5C16.6944 3.5 20.5 7.30558 20.5 12C20.5 16.6944 16.6944 20.5 12 20.5C7.30558 20.5 3.5 16.6944 3.5 12Z" fill="#006FB9"/>
</svg>
