<svg width="41" height="41" viewBox="0 0 41 41" fill="none" xmlns="http://www.w3.org/2000/svg">
<path fill-rule="evenodd" clip-rule="evenodd" d="M7.73683 6.06836C6.91352 6.06836 6.24609 6.73579 6.24609 7.5591V32.911C6.24609 33.7343 6.91352 34.4017 7.73683 34.4017H33.0887C33.912 34.4017 34.5794 33.7343 34.5794 32.911V7.5591C34.5794 6.73579 33.912 6.06836 33.0887 6.06836H7.73683ZM3.74609 7.5591C3.74609 5.35507 5.53281 3.56836 7.73683 3.56836H33.0887C35.2927 3.56836 37.0794 5.35508 37.0794 7.5591V32.911C37.0794 35.115 35.2927 36.9017 33.0887 36.9017H7.73683C5.53281 36.9017 3.74609 35.115 3.74609 32.911V7.5591ZM20.4128 11.1278C19.6539 11.1278 18.9262 11.4292 18.3896 11.9658C17.8531 12.5023 17.5516 13.2301 17.5516 13.9889V14.7944H23.2739V13.9889C23.2739 13.2301 22.9724 12.5023 22.4359 11.9658C21.8993 11.4292 21.1716 11.1278 20.4128 11.1278ZM25.7739 14.7944V13.9889C25.7739 12.567 25.209 11.2034 24.2036 10.198C23.1982 9.19259 21.8346 8.62776 20.4128 8.62776C18.9909 8.62776 17.6273 9.19259 16.6219 10.198C15.6165 11.2034 15.0517 12.567 15.0517 13.9889V14.7944H14.8861C14.8692 14.7944 14.8523 14.7948 14.8354 14.7954C14.2334 14.8199 13.6621 15.0677 13.2329 15.4906C12.8183 15.8991 12.5651 16.4427 12.5184 17.0215L10.8561 28.9638C10.8559 28.965 10.8557 28.9662 10.8556 28.9675C10.8076 29.3033 10.8299 29.6455 10.921 29.9723C11.0125 30.3004 11.1714 30.6057 11.3875 30.8689C11.6035 31.1321 11.8721 31.3474 12.1761 31.501C12.48 31.6546 12.8126 31.7432 13.1527 31.7611C13.1746 31.7622 13.1964 31.7628 13.2183 31.7628H27.6072C27.6291 31.7628 27.651 31.7622 27.6729 31.7611C28.0129 31.7432 28.3456 31.6546 28.6495 31.501C28.9534 31.3474 29.222 31.1321 29.4381 30.8689C29.6542 30.6057 29.813 30.3004 29.9045 29.9723C29.9957 29.6456 30.018 29.3035 29.97 28.9677C29.9698 28.9664 29.9697 28.9651 29.9695 28.9638L28.3071 17.0215C28.2604 16.4422 28.0068 15.8982 27.5916 15.4896C27.1618 15.0666 26.5898 14.8191 25.9873 14.7954C25.9709 14.7947 25.9545 14.7944 25.9381 14.7944H25.7739ZM24.5253 17.2944C24.5248 17.2944 24.5243 17.2944 24.5239 17.2944H16.3017C16.3012 17.2944 16.3007 17.2944 16.3002 17.2944H15.0042C15.0031 17.3043 15.0018 17.3142 15.0004 17.324L13.3386 29.2628H27.487L25.8251 17.324C25.8238 17.3142 25.8225 17.3043 25.8214 17.2944H24.5253Z" fill="#FFDD35"/>
</svg>
