<svg width="21" height="23" viewBox="0 0 21 23" fill="none" xmlns="http://www.w3.org/2000/svg">
<path d="M10.6177 15.9023V17.4007" stroke="#FFDD35" stroke-width="1.95" stroke-linecap="round" stroke-linejoin="round"/>
<path d="M10.6177 8.46973V9.86421" stroke="#FFDD35" stroke-width="1.95" stroke-linecap="round" stroke-linejoin="round"/>
<path d="M10.6173 21.0495C15.8096 21.0495 19.5183 19.21 19.5183 15.1155C19.5183 10.665 17.2931 7.69803 12.8426 5.47279L14.5931 3.21787C14.682 3.06992 14.7303 2.90109 14.7329 2.72849C14.7356 2.5559 14.6926 2.38566 14.6082 2.23505C14.5239 2.08444 14.4012 1.9588 14.2527 1.87088C14.1041 1.78295 13.935 1.73586 13.7624 1.73438H7.47233C7.29972 1.73586 7.13057 1.78295 6.98202 1.87088C6.83347 1.9588 6.71081 2.08444 6.62647 2.23505C6.54213 2.38566 6.4991 2.5559 6.50175 2.72849C6.50441 2.90109 6.55265 3.06992 6.64158 3.21787L8.3921 5.48762C3.94161 7.7277 1.71637 10.6947 1.71637 15.1452C1.71637 19.21 5.42511 21.0495 10.6173 21.0495Z" stroke="#FFDD35" stroke-width="1.95" stroke-linecap="round" stroke-linejoin="round"/>
<path d="M9.13349 15.2197C9.3145 15.4346 9.54232 15.6051 9.79947 15.7183C10.0566 15.8314 10.3363 15.8841 10.617 15.8724C11.046 15.9017 11.4697 15.7634 11.7989 15.4868C12.1281 15.2101 12.3373 14.8166 12.3823 14.3889C12.3373 13.9613 12.1281 13.5677 11.7989 13.2911C11.4697 13.0144 11.046 12.8762 10.617 12.9054C10.1879 12.9347 9.76428 12.7965 9.43506 12.5198C9.10584 12.2431 8.8967 11.8496 8.85162 11.4219C8.89308 10.9928 9.10121 10.597 9.43129 10.3196C9.76138 10.0422 10.1871 9.90538 10.617 9.93845C10.8927 9.92158 11.1688 9.96605 11.4253 10.0687C11.6818 10.1713 11.9124 10.3295 12.1005 10.5318" stroke="#FFDD35" stroke-width="1.95" stroke-linecap="round" stroke-linejoin="round"/>
</svg>
