<svg width="24" height="25" viewBox="0 0 24 25" fill="none" xmlns="http://www.w3.org/2000/svg">
<path d="M13.3449 2.9502H3.46767C3.09344 2.9502 2.73454 3.09886 2.46992 3.36348C2.2053 3.62809 2.05664 3.987 2.05664 4.36122V19.8825C2.05664 20.2568 2.2053 20.6157 2.46992 20.8803C2.73454 21.1449 3.09344 21.2936 3.46767 21.2936H18.989C19.3632 21.2936 19.7221 21.1449 19.9867 20.8803C20.2513 20.6157 20.4 20.2568 20.4 19.8825V10.0053L13.3449 2.9502Z" stroke="#FFDD35" stroke-width="1.95" stroke-linecap="round" stroke-linejoin="round"/>
<path d="M13.3449 9.29982V2.9502L20.4 10.0053H14.0504C13.8633 10.0053 13.6839 9.931 13.5515 9.79869C13.4192 9.66638 13.3449 9.48693 13.3449 9.29982Z" stroke="#FFDD35" stroke-width="1.95" stroke-linecap="round" stroke-linejoin="round"/>
<path d="M7.70032 8.59408V6.47754" stroke="#FFDD35" stroke-width="1.95" stroke-linecap="round" stroke-linejoin="round"/>
<path d="M5.58417 14.2379C5.58417 15.2961 6.52956 15.6489 7.70071 15.6489C8.87186 15.6489 9.81725 15.6489 9.81725 14.2379C9.81725 12.1213 5.58417 12.1213 5.58417 10.0048C5.58417 8.59375 6.52956 8.59375 7.70071 8.59375C8.87186 8.59375 9.81725 9.12994 9.81725 10.0048" stroke="#FFDD35" stroke-width="1.95" stroke-linecap="round" stroke-linejoin="round"/>
<path d="M7.70032 15.6484V17.765" stroke="#FFDD35" stroke-width="1.95" stroke-linecap="round" stroke-linejoin="round"/>
<path d="M13.3449 15.6484H17.578" stroke="#FFDD35" stroke-width="1.95" stroke-linecap="round" stroke-linejoin="round"/>
</svg>
