<svg width="48" height="49" viewBox="0 0 48 49" fill="none" xmlns="http://www.w3.org/2000/svg">
<path fill-rule="evenodd" clip-rule="evenodd" d="M4.27441 7.21866C4.27441 5.48204 5.68224 4.07422 7.41886 4.07422H27.1522C28.8889 4.07422 30.2966 5.48206 30.2966 7.21866V40.9298C30.2966 42.6664 28.8888 44.0742 27.1522 44.0742H7.41886C5.68226 44.0742 4.27441 42.6665 4.27441 40.9298V7.21866ZM7.41886 7.07422C7.33909 7.07422 7.27441 7.1389 7.27441 7.21866V40.9298C7.27441 41.0096 7.33907 41.0742 7.41886 41.0742H27.1522C27.232 41.0742 27.2966 41.0096 27.2966 40.9298V7.21866C27.2966 7.13888 27.232 7.07422 27.1522 7.07422H7.41886ZM33.1124 5.28826C33.6288 5.18334 34.1623 5.35708 34.518 5.74595L37.7542 9.28479C37.9377 9.48537 38.0631 9.73202 38.1173 9.99839L43.6837 37.3932C43.8486 38.2049 43.3244 38.9967 42.5127 39.1618L41.5645 39.3546L41.7855 40.4439L41.9268 40.4152C42.7386 40.2503 43.5304 40.7748 43.6953 41.5867C43.8601 42.3985 43.3356 43.1903 42.5238 43.3552L39.3007 44.0097C38.4888 44.1745 37.697 43.65 37.5322 42.8382C37.3673 42.0263 37.8918 41.2345 38.7037 41.0697L38.8455 41.0409L38.6247 39.9526L37.6781 40.1452C37.2882 40.2245 36.8827 40.1456 36.551 39.926C36.2192 39.7063 35.9883 39.3638 35.9091 38.9739L30.3427 11.5775C30.2886 11.3111 30.3078 11.035 30.3984 10.7788L31.9968 6.25819C32.1725 5.76138 32.596 5.39319 33.1124 5.28826ZM39.4899 36.7152L39.4982 36.7135L39.505 36.7121L40.4452 36.5209L35.2601 11.0028L33.9916 9.61582L33.3653 11.3872L38.5503 36.9063L39.4899 36.7152ZM15.3745 10.4533C15.3745 9.3978 16.2301 8.54216 17.2856 8.54216C18.341 8.54216 19.1967 9.39771 19.1967 10.4533C19.1967 11.5088 18.341 12.3644 17.2856 12.3644C16.2301 12.3644 15.3745 11.5087 15.3745 10.4533Z" fill="#FFDD35"/>
</svg>
