<svg width="40" height="31" viewBox="0 0 40 31" fill="none" xmlns="http://www.w3.org/2000/svg">
<mask id="mask0_1277_2611" style="mask-type:alpha" maskUnits="userSpaceOnUse" x="0" y="0" width="40" height="31">
<path d="M0.0527344 0.713867H39.1484V30.7138H0.0527344V0.713867Z" fill="white"/>
</mask>
<g mask="url(#mask0_1277_2611)">
<path fill-rule="evenodd" clip-rule="evenodd" d="M2.78339 8.19924C0.893344 8.92558 -0.209914 10.726 0.106552 12.5676L1.83837 22.6499C2.10325 24.1796 3.29918 25.4402 4.92434 25.9022L21.1952 30.5286C22.3588 30.8588 23.6203 30.7445 24.6912 30.211L35.4702 24.8337C36.7387 24.2034 37.5911 23.0516 37.7563 21.7434L39.1183 11.1761C39.329 9.55508 38.4504 7.97697 36.8838 7.16728L25.4115 1.2446C24.2025 0.620654 22.7417 0.542066 21.4531 1.03423L2.78339 8.19924Z" fill="white"/>
</g>
<path fill-rule="evenodd" clip-rule="evenodd" d="M5.73559 13.9041V15.3742H8.31277V15.9029H5.73559V17.7509H4.96891V15.9029H4.96191V15.3742H4.96891V13.3643H5.73559V13.3762H8.51821V13.9041H5.73559Z" fill="#245BA7"/>
<mask id="mask1_1277_2611" style="mask-type:alpha" maskUnits="userSpaceOnUse" x="0" y="0" width="40" height="31">
<path d="M0.0527344 30.7139H39.1484V0.713867H0.0527344V30.7139Z" fill="white"/>
</mask>
<g mask="url(#mask1_1277_2611)">
<path fill-rule="evenodd" clip-rule="evenodd" d="M9.41602 17.7509H9.99125V13.3643H9.41602V17.7509Z" fill="#245BA7"/>
<path fill-rule="evenodd" clip-rule="evenodd" d="M18.2785 13.5563H19.9307V13.8802H18.2785V17.7509H17.9218V13.8802H16.2695V13.5563H17.9218V13.5508H18.2785V13.5563Z" fill="#245BA7"/>
<path fill-rule="evenodd" clip-rule="evenodd" d="M30.6559 15.3871H33.6038V13.5391H33.9736V17.7638H33.6038V15.7229H30.6559V17.7638H30.2861V13.5391H30.6559V15.3871Z" fill="#245BA7"/>
<path fill-rule="evenodd" clip-rule="evenodd" d="M21.2387 15.4051H23.8229V15.729H21.2387V17.427H24.1795V17.7517H20.8418V13.5508H21.2387V13.5563H24.1795V13.881H21.2387V15.4051Z" fill="#245BA7"/>
<path fill-rule="evenodd" clip-rule="evenodd" d="M11.6897 13.3643L14.7827 16.8086V13.3643H15.357V17.7509H14.8754L14.8614 17.7088L11.8418 14.3121V17.7509H11.2666V13.3643H11.6897Z" fill="#245BA7"/>
<path fill-rule="evenodd" clip-rule="evenodd" d="M29.3548 14.0969L29.3356 14.085L29.0445 14.3366C28.6677 13.9524 28.1327 13.7182 27.5373 13.7182C26.407 13.7182 25.4952 14.5763 25.4952 15.6329C25.4952 16.6895 26.414 17.5476 27.5373 17.5476C28.172 17.5476 28.7403 17.2769 29.117 16.8514L29.4012 17.0967C28.9649 17.5476 28.3372 17.835 27.637 17.835C26.3283 17.835 25.2705 16.8451 25.2705 15.621C25.2705 14.3969 26.3283 13.4062 27.637 13.4062C28.3171 13.4062 28.9256 13.6706 29.3548 14.0969Z" fill="#245BA7"/>
<path fill-rule="evenodd" clip-rule="evenodd" d="M23.7969 19.6953L24.4771 20.6193L25.1913 19.6953H25.409V21.4893H25.1389V20.1692L24.5374 20.9916H24.4246L23.8232 20.2057V21.4655H23.5723V19.6953H23.7969Z" fill="#245BA7"/>
<path fill-rule="evenodd" clip-rule="evenodd" d="M26.3745 19.5211L26.7311 19.125L27.0091 19.275L26.6516 19.5275H26.3745V19.5211ZM26.0965 21.2374H27.2801V21.489H25.8193V19.695H27.2469V19.9291H26.0965V20.4515H27.1473V20.6856H26.0965V21.2374Z" fill="#245BA7"/>
<path fill-rule="evenodd" clip-rule="evenodd" d="M28.2973 20.3915L28.8988 19.6953H29.203L28.4424 20.5653L29.2292 21.4655H28.925L28.2973 20.7392L27.6626 21.4655H27.3584L28.1452 20.5653L27.3916 19.6953H27.6897L28.2973 20.3915Z" fill="#245BA7"/>
<path fill-rule="evenodd" clip-rule="evenodd" d="M29.4736 21.4893H29.7508V19.6953H29.4736V21.4893Z" fill="#245BA7"/>
<path fill-rule="evenodd" clip-rule="evenodd" d="M31.8857 19.9711L31.6943 20.1394C31.5614 19.9774 31.3507 19.8695 31.1121 19.8695C30.702 19.8695 30.3725 20.1814 30.3725 20.5712C30.3725 20.9554 30.702 21.2737 31.1121 21.2737C31.3629 21.2737 31.5885 21.1531 31.7205 20.9737L31.9189 21.1293C31.7336 21.3515 31.4425 21.4897 31.1121 21.4897C30.5508 21.4897 30.1006 21.0753 30.1006 20.5712C30.1006 20.0671 30.5569 19.6536 31.1121 19.6536C31.4233 19.6472 31.7004 19.7726 31.8857 19.9711Z" fill="#245BA7"/>
<path fill-rule="evenodd" clip-rule="evenodd" d="M32.9893 21.2738C33.3862 21.2738 33.7096 20.9555 33.7096 20.5657C33.7096 20.176 33.3862 19.8576 32.9893 19.8576C32.5924 19.8576 32.2689 20.176 32.2689 20.5657C32.2689 20.9555 32.5924 21.2738 32.9893 21.2738ZM32.9762 21.4842C32.421 21.4842 31.9717 21.0754 31.9717 20.5713C31.9717 20.0672 32.421 19.6592 32.9762 19.6592C33.5313 19.6592 33.9806 20.0672 33.9806 20.5713C33.9806 21.0754 33.5313 21.4842 32.9762 21.4842Z" fill="#245BA7"/>
</g>
</svg>
