<svg width="41" height="41" viewBox="0 0 41 41" fill="none" xmlns="http://www.w3.org/2000/svg">
<path d="M4.78711 35.8594C5.29056 34.9154 6.04111 34.126 6.95849 33.5756C7.87587 33.0251 8.9256 32.7344 9.99544 32.7344C11.0653 32.7344 12.115 33.0251 13.0324 33.5756C13.9498 34.126 14.7003 34.9154 15.2038 35.8594C15.7072 34.9154 16.4578 34.126 17.3752 33.5756C18.2925 33.0251 19.3423 32.7344 20.4121 32.7344C21.482 32.7344 22.5317 33.0251 23.4491 33.5756C24.3664 34.126 25.117 34.9154 25.6204 35.8594C26.1239 34.9154 26.8744 34.126 27.7918 33.5756C28.7092 33.0251 29.7589 32.7344 30.8288 32.7344C31.8986 32.7344 32.9483 33.0251 33.8657 33.5756C34.7831 34.126 35.5337 34.9154 36.0371 35.8594M13.1204 20.2344H6.87044C6.31791 20.2344 5.788 20.0149 5.3973 19.6242C5.0066 19.2335 4.78711 18.7036 4.78711 18.151V6.69271C4.78711 6.14017 5.0066 5.61027 5.3973 5.21957C5.788 4.82887 6.31791 4.60938 6.87044 4.60938H13.1204M24.5788 4.60938H33.9538C34.5063 4.60938 35.0362 4.82887 35.4269 5.21957C35.8176 5.61027 36.0371 6.14017 36.0371 6.69271V18.151C36.0371 18.7036 35.8176 19.2335 35.4269 19.6242C35.0362 20.0149 34.5063 20.2344 33.9538 20.2344H24.5788M6.34961 28.0469C6.34961 28.5257 6.44391 28.9997 6.62713 29.4421C6.81035 29.8844 7.0789 30.2863 7.41745 30.6249C7.756 30.9634 8.15791 31.232 8.60024 31.4152C9.04258 31.5984 9.51666 31.6927 9.99544 31.6927C10.4742 31.6927 10.9483 31.5984 11.3906 31.4152C11.833 31.232 12.2349 30.9634 12.5734 30.6249C12.912 30.2863 13.1805 29.8844 13.3638 29.4421C13.547 28.9997 13.6413 28.5257 13.6413 28.0469C13.6413 27.5681 13.547 27.094 13.3638 26.6517C13.1805 26.2093 12.912 25.8074 12.5734 25.4689C12.2349 25.1303 11.833 24.8618 11.3906 24.6786C10.9483 24.4953 10.4742 24.401 9.99544 24.401C9.51666 24.401 9.04258 24.4953 8.60024 24.6786C8.15791 24.8618 7.756 25.1303 7.41745 25.4689C7.0789 25.8074 6.81035 26.2093 6.62713 26.6517C6.44391 27.094 6.34961 27.5681 6.34961 28.0469ZM16.7663 28.0469C16.7663 29.0138 17.1504 29.9411 17.8341 30.6249C18.5178 31.3086 19.4452 31.6927 20.4121 31.6927C21.379 31.6927 22.3064 31.3086 22.9901 30.6249C23.6738 29.9411 24.0579 29.0138 24.0579 28.0469C24.0579 27.0799 23.6738 26.1526 22.9901 25.4689C22.3064 24.7852 21.379 24.401 20.4121 24.401C19.4452 24.401 18.5178 24.7852 17.8341 25.4689C17.1504 26.1526 16.7663 27.0799 16.7663 28.0469ZM27.1829 28.0469C27.1829 29.0138 27.5671 29.9411 28.2508 30.6249C28.9345 31.3086 29.8618 31.6927 30.8288 31.6927C31.7957 31.6927 32.723 31.3086 33.4068 30.6249C34.0905 29.9411 34.4746 29.0138 34.4746 28.0469C34.4746 27.0799 34.0905 26.1526 33.4068 25.4689C32.723 24.7852 31.7957 24.401 30.8288 24.401C29.8618 24.401 28.9345 24.7852 28.2508 25.4689C27.5671 26.1526 27.1829 27.0799 27.1829 28.0469ZM17.2871 7.73437V18.151L25.6204 12.9427L17.2871 7.73437Z" stroke="#FFDD35" stroke-width="3" stroke-linecap="round" stroke-linejoin="round"/>
</svg>
