<svg width="32" height="33" viewBox="0 0 32 33" fill="none" xmlns="http://www.w3.org/2000/svg">
<path fill-rule="evenodd" clip-rule="evenodd" d="M11.9053 4.89322C11.8752 4.88214 11.842 4.88341 11.8129 4.89677C11.7837 4.91015 11.761 4.93455 11.7498 4.96462C11.7498 4.96465 11.7498 4.96459 11.7498 4.96462L11.049 6.84943C10.8565 7.36709 10.2809 7.63071 9.76319 7.43825C9.24553 7.24578 8.98191 6.6701 9.17438 6.15244L9.87516 4.26763C10.0712 3.74065 10.4684 3.31294 10.9795 3.07866C11.4906 2.84439 12.0738 2.82261 12.601 3.01812L23.7391 7.15915C24.2567 7.35161 24.5203 7.92728 24.3279 8.44495C24.1354 8.96261 23.5597 9.22624 23.0421 9.03378L11.9053 4.89322C11.9054 4.89325 11.9052 4.89319 11.9053 4.89322ZM8.33673 9.93212C8.32103 9.92944 8.30496 9.92988 8.28943 9.93342C8.2739 9.93695 8.25922 9.94351 8.24622 9.95272C8.23323 9.96193 8.22218 9.97361 8.2137 9.98709C8.20526 10.0005 8.19953 10.0155 8.19684 10.0311M8.19684 10.0311L7.88065 11.8913C7.7881 12.4357 7.27169 12.8021 6.72722 12.7095C6.18274 12.617 5.81639 12.1006 5.90894 11.5561L6.22513 9.69596C6.27187 9.42126 6.37231 9.15829 6.52064 8.92242C6.66897 8.68654 6.86232 8.4822 7.08964 8.32106C7.31696 8.15993 7.57381 8.04516 7.8455 7.98331C8.11707 7.92149 8.39815 7.91375 8.67271 7.96054C8.6726 7.96052 8.67283 7.96056 8.67271 7.96054L23.7299 10.5237C24.2743 10.6164 24.6406 11.1329 24.5479 11.6773C24.4552 12.2218 23.9387 12.588 23.3943 12.4953L8.33673 9.93212M5.21304 14.9763C5.14608 14.9763 5.0918 15.0305 5.0918 15.0975V27.4312C5.0918 27.4981 5.14608 27.5524 5.21304 27.5524H26.7869C26.8538 27.5524 26.9081 27.4981 26.9081 27.4312V15.0975C26.9081 15.0305 26.8538 14.9763 26.7869 14.9763H5.21304ZM3.0918 15.0975C3.0918 13.926 4.04151 12.9763 5.21304 12.9763H26.7869C27.9584 12.9763 28.9081 13.926 28.9081 15.0975V27.4312C28.9081 28.6027 27.9584 29.5524 26.7869 29.5524H5.21304C4.04151 29.5524 3.0918 28.6027 3.0918 27.4312V15.0975ZM15.8658 15.779C16.1311 15.779 16.3854 15.8844 16.5729 16.0719L19.3764 18.8754C19.564 19.0629 19.6693 19.3173 19.6693 19.5825C19.6693 19.8477 19.564 20.1021 19.3764 20.2896L16.5729 23.0931C16.1824 23.4836 15.5493 23.4836 15.1587 23.0931L12.3553 20.2896C11.9647 19.8991 11.9647 19.2659 12.3553 18.8754L15.1587 16.0719C15.3463 15.8844 15.6006 15.779 15.8658 15.779ZM14.4766 19.5825L15.8658 20.9718L17.2551 19.5825L15.8658 18.1932L14.4766 19.5825ZM8.69812 25.1887C8.69812 24.6364 9.14584 24.1887 9.69812 24.1887H22.5924C23.1447 24.1887 23.5924 24.6364 23.5924 25.1887C23.5924 25.741 23.1447 26.1887 22.5924 26.1887H9.69812C9.14584 26.1887 8.69812 25.741 8.69812 25.1887Z" fill="#FFDD35"/>
</svg>
