<svg width="40" height="40" viewBox="0 0 40 40" fill="none" xmlns="http://www.w3.org/2000/svg">
<path d="M21.2507 10.0899C21.2507 9.39951 20.691 8.83986 20.0007 8.83986C19.3103 8.83986 18.7507 9.39951 18.7507 10.0899V11.2172C18.0082 11.4292 17.3297 11.8272 16.7808 12.376C16.144 13.0129 15.7103 13.8242 15.5346 14.7075C15.3589 15.5908 15.4491 16.5064 15.7937 17.3385C16.1384 18.1705 16.722 18.8817 17.4708 19.382C18.2197 19.8824 19.1001 20.1495 20.0007 20.1495C20.4068 20.1495 20.8039 20.2699 21.1416 20.4956C21.4793 20.7212 21.7425 21.0419 21.8979 21.4172C22.0534 21.7924 22.094 22.2053 22.0148 22.6037C21.9356 23.002 21.74 23.3679 21.4528 23.6551C21.1656 23.9423 20.7997 24.1379 20.4013 24.2171C20.2722 24.2428 20.1416 24.2559 20.0112 24.2566L20.0007 24.2565L19.9897 24.2566C19.725 24.2552 19.4618 24.2026 19.2148 24.1003C18.8396 23.9449 18.5188 23.6816 18.2932 23.3439C18.0675 23.0062 17.9471 22.6092 17.9471 22.203C17.9471 21.5127 17.3875 20.953 16.6971 20.953C16.0067 20.953 15.4471 21.5127 15.4471 22.203C15.4471 23.1036 15.7142 23.984 16.2145 24.7329C16.7149 25.4817 17.426 26.0653 18.2581 26.41C18.4194 26.4768 18.5839 26.5341 18.7507 26.5817V27.7089C18.7507 28.3993 19.3103 28.9589 20.0007 28.9589C20.691 28.9589 21.2507 28.3993 21.2507 27.7089V26.5817C21.9931 26.3697 22.6717 25.9718 23.2205 25.4229C23.8574 24.7861 24.291 23.9747 24.4668 23.0914C24.6425 22.2081 24.5523 21.2925 24.2076 20.4605C23.863 19.6284 23.2793 18.9172 22.5305 18.4169C21.7817 17.9165 20.9013 17.6495 20.0007 17.6495C19.5945 17.6495 19.1975 17.529 18.8598 17.3034C18.5221 17.0777 18.2589 16.757 18.1034 16.3818C17.948 16.0065 17.9073 15.5936 17.9866 15.1953C18.0658 14.7969 18.2614 14.431 18.5486 14.1438C18.8358 13.8566 19.2017 13.661 19.6 13.5818C19.9984 13.5025 20.4113 13.5432 20.7865 13.6986C21.1618 13.8541 21.4825 14.1173 21.7082 14.455C21.9338 14.7927 22.0542 15.1897 22.0542 15.5959C22.0542 16.2862 22.6139 16.8459 23.3042 16.8459C23.9946 16.8459 24.5542 16.2862 24.5542 15.5959C24.5542 14.6953 24.2872 13.8149 23.7868 13.0661C23.2865 12.3172 22.5753 11.7336 21.7432 11.3889C21.5819 11.3221 21.4174 11.2649 21.2507 11.2172V10.0899Z" fill="#FFDD35"/>
<path fill-rule="evenodd" clip-rule="evenodd" d="M8.43819 3.33398C7.08448 3.33398 5.78622 3.87174 4.829 4.82896C3.87178 5.78618 3.33402 7.08444 3.33402 8.43815V16.1453C3.32515 20.917 4.94508 25.5489 7.92598 29.275C10.9071 33.0014 15.0709 35.5987 19.7286 36.6374C19.9078 36.6773 20.0936 36.6773 20.2728 36.6374C24.9305 35.5987 29.0943 33.0014 32.0754 29.275C35.0566 25.5486 36.6765 20.9162 36.6674 16.1441V8.43815C36.6674 7.08444 36.1296 5.78618 35.1724 4.82896C34.2152 3.87174 32.9169 3.33398 31.5632 3.33398H8.43819ZM6.59676 6.59673C7.08514 6.10835 7.74752 5.83398 8.43819 5.83398H31.5632C32.2539 5.83398 32.9163 6.10835 33.4046 6.59673C33.893 7.0851 34.1674 7.74748 34.1674 8.43815V16.1465L34.1674 16.1489C34.1754 20.3517 32.7487 24.4314 30.1232 27.7133C27.5559 30.9224 23.9927 33.1807 20.0007 34.1345C16.0086 33.1807 12.4455 30.9224 9.87815 27.7133C7.25266 24.4314 5.82596 20.3517 5.83402 16.1489L5.83402 8.43815C5.83402 7.74748 6.10839 7.0851 6.59676 6.59673Z" fill="#FFDD35"/>
</svg>
