<svg width="176" height="32" viewBox="0 0 176 32" fill="none" xmlns="http://www.w3.org/2000/svg">
<g clip-path="url(#clip0_1308_9456)">
<path fill-rule="evenodd" clip-rule="evenodd" d="M1.27974 0.5H39.6001C39.9385 0.5 40.263 0.634183 40.5022 0.87303C40.7415 1.11188 40.8759 1.43582 40.8759 1.7736V30.2456C40.8759 30.5834 40.7415 30.9073 40.5022 31.1462C40.263 31.385 39.9385 31.5192 39.6001 31.5192H1.27974C1.1104 31.5192 0.94273 31.4857 0.786465 31.4205C0.6302 31.3553 0.488445 31.2599 0.369415 31.1396C0.250386 31.0194 0.15645 30.8767 0.093053 30.72C0.0296559 30.5632 -0.00194187 30.3954 9.23286e-05 30.2264V1.7736C0.00110951 1.43547 0.136378 1.11153 0.376249 0.872797C0.61612 0.63406 0.941024 0.5 1.27974 0.5ZM15.9403 15.9099H36.5223L36.5146 19.0363H34.8468V23.3443H33.1752V21.1923H31.5612V23.3482H29.8935V19.0363H15.9403C16.0426 19.3708 16.0944 19.7186 16.094 20.0683C16.0948 20.9476 15.7725 21.7967 15.1879 22.4545C14.6034 23.1123 13.7974 23.5332 12.9228 23.6372C12.0481 23.7413 11.1656 23.5213 10.4426 23.019C9.71959 22.5168 9.20635 21.7671 9.00018 20.9122C8.46206 21.0755 7.89311 21.1107 7.33893 21.0149C6.78474 20.9192 6.26073 20.6951 5.80889 20.3608C5.35705 20.0265 4.98995 19.5911 4.73701 19.0897C4.48407 18.5882 4.35231 18.0345 4.35231 17.4731C4.35231 16.9116 4.48407 16.358 4.73701 15.8565C4.98995 15.3551 5.35705 14.9197 5.80889 14.5854C6.26073 14.251 6.78474 14.027 7.33893 13.9313C7.89311 13.8355 8.46206 13.8707 9.00018 14.034C9.11114 13.5656 9.31527 13.1244 9.60046 12.7363C9.88564 12.3483 10.246 12.0215 10.6603 11.7753C11.0745 11.5291 11.534 11.3685 12.0117 11.3031C12.4893 11.2377 12.9752 11.2688 13.4405 11.3946C13.9058 11.5204 14.3411 11.7382 14.7204 12.0353C15.0997 12.3323 15.4153 12.7024 15.6485 13.1236C15.8817 13.5448 16.0277 14.0085 16.0778 14.4872C16.1279 14.9658 16.0812 15.4496 15.9403 15.9099ZM13.3871 13.5431C13.1224 13.3672 12.8113 13.2737 12.4933 13.2744C12.0686 13.2754 11.6616 13.4443 11.3613 13.7441C11.061 14.0439 10.8918 14.4501 10.8908 14.8741C10.8901 15.1916 10.9837 15.5021 11.1599 15.7664C11.3361 16.0307 11.587 16.2368 11.8806 16.3586C12.1743 16.4805 12.4976 16.5126 12.8095 16.4508C13.1215 16.3891 13.4081 16.2363 13.6329 16.0118C13.8578 15.7873 14.0109 15.5012 14.0727 15.1898C14.1346 14.8784 14.1024 14.5557 13.9804 14.2625C13.8583 13.9694 13.6519 13.719 13.3871 13.5431ZM6.61578 16.5799C6.43911 16.8437 6.34481 17.1539 6.34481 17.4712C6.3443 17.6816 6.38538 17.89 6.46568 18.0845C6.54598 18.2791 6.66394 18.4558 6.81279 18.6048C6.96164 18.7537 7.13846 18.8719 7.33313 18.9526C7.5278 19.0332 7.73649 19.0747 7.94725 19.0747C8.26511 19.0755 8.57604 18.9821 8.8407 18.8063C9.10536 18.6306 9.31184 18.3804 9.434 18.0875C9.55617 17.7945 9.58853 17.472 9.52699 17.1607C9.46544 16.8494 9.31276 16.5633 9.08827 16.3387C8.86378 16.114 8.57758 15.9609 8.26588 15.8988C7.95419 15.8366 7.63102 15.8681 7.33729 15.9894C7.04355 16.1106 6.79246 16.3161 6.61578 16.5799ZM11.6009 21.4207C11.865 21.5969 12.1756 21.691 12.4933 21.691C12.9193 21.691 13.3279 21.522 13.6291 21.2213C13.9303 20.9206 14.0996 20.5127 14.0996 20.0874C14.0996 19.7703 14.0054 19.4603 13.8289 19.1966C13.6524 18.9329 13.4015 18.7273 13.108 18.606C12.8145 18.4846 12.4915 18.4529 12.1799 18.5147C11.8683 18.5766 11.5821 18.7293 11.3575 18.9536C11.1328 19.1778 10.9798 19.4636 10.9179 19.7746C10.8559 20.0857 10.8877 20.4081 11.0093 20.7011C11.1308 20.9941 11.3367 21.2445 11.6009 21.4207Z" fill="white"/>
<path d="M68.5054 11.4141C64.7087 11.4141 61.5576 14.1454 61.5576 18.1273C61.5576 22.1093 64.7087 24.8368 68.5054 24.8368C69.907 24.8417 71.2802 24.442 72.4596 23.6859V24.8368H75.457V18.1273C75.457 14.1723 72.3059 11.4141 68.5054 11.4141V11.4141ZM68.54 22.0824H68.4708C67.42 22.0824 66.4123 21.6657 65.6693 20.924C64.9263 20.1823 64.5089 19.1763 64.5089 18.1273C64.5089 17.0784 64.9263 16.0724 65.6693 15.3307C66.4123 14.589 67.42 14.1723 68.4708 14.1723H68.54C69.5907 14.1723 70.5985 14.589 71.3415 15.3307C72.0845 16.0724 72.5019 17.0784 72.5019 18.1273C72.5019 19.1763 72.0845 20.1823 71.3415 20.924C70.5985 21.6657 69.5907 22.0824 68.54 22.0824Z" fill="white"/>
<path d="M83.3653 11.5061C82.246 11.5069 81.1477 11.8105 80.1874 12.3846V11.4141H77.1323V24.8406H80.1874V17.7092C80.216 16.8874 80.5632 16.1088 81.1557 15.5375C81.7482 14.9663 82.5397 14.647 83.3634 14.647C84.1871 14.647 84.9787 14.9663 85.5712 15.5375C86.1637 16.1088 86.5109 16.8874 86.5395 17.7092V24.8368H89.5945V17.7092C89.5925 16.0606 88.9355 14.4801 87.7678 13.3144C86.6 12.1486 85.0168 11.4928 83.3653 11.4908" fill="white"/>
<path d="M53.8182 6.76855C57.2998 6.76855 59.3441 8.81323 59.3441 11.6481C59.3671 12.4999 59.1191 13.337 58.6358 14.0393C58.1525 14.7415 57.4588 15.2729 56.6542 15.5572C57.6055 15.8041 58.445 16.3656 59.0354 17.1501C59.6259 17.9347 59.9325 18.8958 59.9052 19.8767C59.9052 22.7884 57.6533 24.8867 54.2717 24.8867H47.5698V6.76855H53.8182ZM53.407 14.4409C55.1978 14.4409 56.2738 13.4205 56.2738 11.9128C56.2738 10.4052 55.1978 9.38098 53.3302 9.38098H50.6172V14.4332L53.407 14.4409ZM53.7375 22.2858C55.5821 22.2858 56.7848 21.2884 56.7848 19.6811C56.7848 18.0737 55.7358 17.0226 53.8413 17.0226H50.6172V22.2781L53.7375 22.2858Z" fill="white"/>
<path d="M176 23.5516C176.008 23.8295 175.932 24.1033 175.783 24.338C175.634 24.5727 175.418 24.7576 175.163 24.8691C174.908 24.9806 174.625 25.0135 174.351 24.9638C174.077 24.914 173.825 24.7837 173.625 24.5897C173.426 24.3956 173.289 24.1466 173.232 23.8745C173.176 23.6023 173.202 23.3195 173.307 23.0622C173.412 22.8049 173.592 22.5847 173.823 22.43C174.054 22.2753 174.327 22.193 174.605 22.1936C174.786 22.1901 174.967 22.2225 175.135 22.2891C175.304 22.3556 175.457 22.455 175.587 22.5813C175.717 22.7077 175.82 22.8585 175.891 23.0251C175.962 23.1917 175.999 23.3706 176 23.5516ZM173.552 23.5516C173.56 23.7568 173.628 23.9552 173.747 24.1222C173.867 24.2893 174.033 24.4175 174.225 24.491C174.417 24.5646 174.626 24.5801 174.827 24.5358C175.028 24.4915 175.211 24.3892 175.354 24.2417C175.497 24.0942 175.594 23.908 175.632 23.7062C175.67 23.5044 175.647 23.296 175.568 23.1068C175.488 22.9176 175.354 22.7559 175.183 22.642C175.012 22.5281 174.811 22.4669 174.605 22.466C174.464 22.4659 174.324 22.4942 174.194 22.5492C174.064 22.6041 173.946 22.6847 173.848 22.786C173.75 22.8872 173.673 23.0072 173.622 23.1388C173.571 23.2703 173.548 23.4107 173.552 23.5516V23.5516ZM174.382 24.2651H174.067V22.9071C174.238 22.8754 174.412 22.8612 174.586 22.865C174.751 22.8515 174.917 22.8862 175.063 22.9647C175.105 23.0019 175.139 23.048 175.161 23.0997C175.184 23.1515 175.195 23.2075 175.193 23.2639C175.187 23.3397 175.156 23.4114 175.106 23.4682C175.055 23.525 174.987 23.5637 174.913 23.5785V23.5785C174.981 23.6039 175.042 23.6485 175.086 23.707C175.13 23.7654 175.157 23.8353 175.162 23.9084C175.173 24.0276 175.207 24.1436 175.262 24.2498H174.92C174.868 24.1447 174.831 24.0321 174.813 23.9161C174.79 23.7664 174.705 23.7012 174.528 23.7012H174.382V24.2651ZM174.382 23.4979H174.532C174.705 23.4979 174.847 23.4404 174.847 23.2984C174.847 23.1565 174.767 23.0798 174.571 23.0798C174.513 23.0713 174.455 23.0713 174.398 23.0798L174.382 23.4979Z" fill="white"/>
<path d="M114.465 11.4941C110.719 11.4941 107.61 14.1795 107.606 18.1192C107.602 22.0589 110.719 24.7442 114.465 24.7442C118.212 24.7442 121.325 22.0589 121.329 18.1192C121.332 14.1795 118.216 11.4941 114.465 11.4941ZM114.504 22.0244H114.435C113.419 21.9926 112.455 21.5674 111.748 20.8389C111.041 20.1104 110.645 19.1356 110.645 18.1211C110.645 17.1066 111.041 16.1319 111.748 15.4033C112.455 14.6748 113.419 14.2496 114.435 14.2178H114.508C115.523 14.2496 116.487 14.6748 117.194 15.4033C117.901 16.1319 118.297 17.1066 118.297 18.1211C118.297 19.1356 117.901 20.1104 117.194 20.8389C116.487 21.5674 115.523 21.9926 114.508 22.0244H114.504Z" fill="white"/>
<path d="M104.701 19.6881C103.889 20.6575 102.799 21.3546 101.578 21.6848C100.356 22.015 99.063 21.9625 97.8725 21.5343C96.682 21.1062 95.6522 20.3231 94.9225 19.2911C94.1928 18.2591 93.7984 17.0282 93.7929 15.765C93.7874 14.5018 94.171 13.2675 94.8917 12.2292C95.6124 11.1909 96.6354 10.3989 97.8221 9.96043C99.0088 9.52194 100.302 9.45818 101.526 9.7778C102.75 10.0974 103.846 10.785 104.666 11.7473L106.814 9.86757C105.946 8.87993 104.876 8.08925 103.676 7.54866C102.477 7.00807 101.175 6.7301 99.8587 6.73343C97.4636 6.73343 95.1667 7.68322 93.4731 9.37385C91.7796 11.0645 90.8281 13.3575 90.8281 15.7484C90.8281 18.1393 91.7796 20.4323 93.4731 22.123C95.1667 23.8136 97.4636 24.7634 99.8587 24.7634C101.183 24.7663 102.493 24.4845 103.698 23.9371C104.904 23.3896 105.977 22.5894 106.845 21.5909L104.701 19.6881Z" fill="white"/>
<path d="M144.159 11.4795C140.404 11.4795 137.288 14.2032 137.288 18.1122V30.1501H140.25V23.6286C141.418 24.37 142.775 24.759 144.159 24.7488C147.913 24.7488 151.026 22.0635 151.026 18.1122C151.026 14.161 147.913 11.4795 144.159 11.4795ZM144.193 22.0213H144.12C143.082 22.0213 142.086 21.6094 141.351 20.8763C140.617 20.1432 140.204 19.149 140.204 18.1122C140.204 17.0755 140.617 16.0812 141.351 15.3481C142.086 14.615 143.082 14.2032 144.12 14.2032H144.193C145.232 14.2032 146.228 14.615 146.962 15.3481C147.696 16.0812 148.109 17.0755 148.109 18.1122C148.109 19.149 147.696 20.1432 146.962 20.8763C146.228 21.6094 145.232 22.0213 144.193 22.0213V22.0213Z" fill="white"/>
<path d="M129.306 11.4795C125.552 11.4795 122.439 14.2032 122.439 18.1122V30.1501H125.398V23.6286C126.566 24.3696 127.923 24.7585 129.306 24.7488C133.06 24.7488 136.173 22.0635 136.177 18.1122C136.181 14.161 133.06 11.4795 129.306 11.4795ZM129.341 22.0213H129.271C128.233 22.0213 127.237 21.6094 126.503 20.8763C125.768 20.1432 125.356 19.149 125.356 18.1122C125.356 17.0755 125.768 16.0812 126.503 15.3481C127.237 14.615 128.233 14.2032 129.271 14.2032H129.341C130.379 14.2032 131.375 14.615 132.11 15.3481C132.844 16.0812 133.256 17.0755 133.256 18.1122C133.256 19.149 132.844 20.1432 132.11 20.8763C131.375 21.6094 130.379 22.0213 129.341 22.0213V22.0213Z" fill="white"/>
<path d="M158.131 11.4795C154.672 11.4795 151.771 14.1648 151.767 18.1122C151.763 22.0596 154.653 24.7488 158.131 24.7488C160.229 24.7488 162.435 24.0966 163.599 22.4471L161.854 20.7093C161.432 21.1764 160.913 21.5457 160.333 21.7916C159.753 22.0374 159.126 22.1538 158.496 22.1325C156.213 22.1325 154.684 20.786 154.684 18.8833H164.456C164.483 18.6284 164.497 18.3723 164.498 18.116C164.494 14.1763 162.02 11.4795 158.131 11.4795ZM154.738 16.7926C154.738 15.6187 156.275 14.0114 158.319 14.0114C159.664 14.0114 161.455 15.0318 161.455 16.7926H154.738Z" fill="white"/>
<path d="M168.572 18.1122V6.93359H165.609V18.1122C165.609 22.0059 168.656 24.6873 172.361 24.7449V22.0212C171.853 22.0189 171.351 21.9152 170.884 21.7163C170.417 21.5174 169.995 21.2274 169.642 20.8632C169.289 20.499 169.012 20.068 168.828 19.5955C168.645 19.1231 168.557 18.6188 168.572 18.1122V18.1122Z" fill="white"/>
</g>
<defs>
<clipPath id="clip0_1308_9456">
<rect width="176" height="31" fill="white" transform="translate(0 0.5)"/>
</clipPath>
</defs>
</svg>
