<svg width="50" height="10" viewBox="0 0 50 10" fill="none" xmlns="http://www.w3.org/2000/svg">
<g clip-path="url(#clip0_1073_7012)">
<path d="M0.5 0.75H4.06666C4.74602 0.75 5.25555 0.919841 5.63297 1.20291C6.04814 1.54259 6.27459 2.03324 6.27459 2.63712C6.27459 3.33536 5.99152 3.76939 5.42539 4.03359V4.07133C6.18024 4.31666 6.61427 4.99602 6.61427 5.80749C6.61427 6.58121 6.31233 7.18508 5.82168 7.56251C5.40652 7.86445 4.87812 7.99655 4.16101 7.99655H0.5V0.75ZM3.70811 3.58068C4.08553 3.58068 4.3686 3.3731 4.3686 2.93906C4.3686 2.52389 4.08553 2.31631 3.68923 2.31631H2.46261V3.56181H3.70811V3.58068ZM3.87795 6.39249C4.31198 6.39249 4.63279 6.1283 4.63279 5.65652C4.63279 5.14699 4.29311 4.92054 3.87795 4.92054H2.48148V6.41137H3.87795V6.39249Z" fill="#EEEDED"/>
<path d="M6.93509 0.75H8.80334V8.01542H6.93509V0.75Z" fill="#EEEDED"/>
<path d="M9.18076 5.42969C9.18076 3.78789 10.2375 2.69336 11.8793 2.69336C13.5211 2.69336 14.5591 3.80676 14.5591 5.42969C14.5591 7.07148 13.5211 8.16601 11.8793 8.16601C10.2375 8.16601 9.18076 7.07148 9.18076 5.42969ZM12.6908 5.42969C12.6908 4.52387 12.4077 3.95773 11.8416 3.95773C11.2755 3.95773 11.0113 4.52387 11.0113 5.42969C11.0113 6.3355 11.2755 6.92051 11.8416 6.92051C12.4077 6.90164 12.6908 6.3355 12.6908 5.42969Z" fill="#EEEDED"/>
<path d="M14.7666 5.42969C14.7666 3.78789 15.8234 2.69336 17.4652 2.69336C19.107 2.69336 20.1261 3.78789 20.1261 5.42969C20.1261 7.07148 19.0881 8.16601 17.4463 8.16601C15.8234 8.16601 14.7666 7.07148 14.7666 5.42969ZM18.2767 5.42969C18.2767 4.52387 17.9936 3.95773 17.4275 3.95773C16.8613 3.95773 16.5971 4.52387 16.5971 5.42969C16.5971 6.3355 16.8613 6.92051 17.4275 6.92051C17.9936 6.90164 18.2767 6.3355 18.2767 5.42969Z" fill="#EEEDED"/>
<path d="M20.5035 2.82577H22.2396V3.59949H22.2774C22.6171 2.99562 23.0888 2.6748 23.8437 2.6748C24.5042 2.6748 24.9948 2.99562 25.2402 3.56175H25.2779C25.6931 2.88239 26.2403 2.6748 26.882 2.6748C28.0897 2.6748 28.5992 3.56175 28.5992 4.75064V7.99649H26.7876V5.07145C26.7876 4.54305 26.6178 4.20337 26.1648 4.20337C25.7119 4.20337 25.4855 4.61854 25.4855 5.18468V7.99649H23.6738V5.07145C23.6738 4.54305 23.504 4.20337 23.0511 4.20337C22.5982 4.20337 22.3717 4.61854 22.3717 5.18468V7.99649H20.5035V2.82577Z" fill="#EEEDED"/>
<path d="M30.8826 7.31718H30.8638V7.99655H29.1276V0.75H30.9393V3.35423H30.977C31.3167 2.90132 31.7885 2.65599 32.449 2.65599C33.7511 2.65599 34.5059 3.82601 34.5059 5.39232C34.5059 7.14734 33.6945 8.16639 32.3357 8.16639C31.7696 8.16639 31.1846 7.90219 30.8826 7.31718ZM32.6377 5.37345C32.6377 4.54311 32.3357 3.99585 31.7885 3.99585C31.2223 3.99585 30.8826 4.54311 30.8826 5.37345C30.8826 6.20378 31.2412 6.75105 31.7885 6.75105C32.3357 6.75105 32.6377 6.22265 32.6377 5.37345Z" fill="#EEEDED"/>
<path d="M34.7135 5.41113C34.7135 3.78821 35.7892 2.6748 37.3366 2.6748C38.1104 2.6748 38.6954 2.92013 39.1483 3.35417C39.7521 3.93918 40.0163 4.845 39.9975 5.90178H36.5252C36.6007 6.54341 36.9026 6.88309 37.4499 6.88309C37.7707 6.88309 38.0537 6.73212 38.167 6.39244H39.922C39.62 7.58132 38.6954 8.16633 37.3932 8.16633C35.7892 8.14746 34.7135 7.05293 34.7135 5.41113ZM36.5252 4.86387H38.1858C38.1481 4.24112 37.8084 3.92031 37.3744 3.92031C36.8649 3.90143 36.5818 4.25999 36.5252 4.86387Z" fill="#EEEDED"/>
<path d="M42.0544 3.71307H42.0922C42.4696 2.99596 42.9602 2.71289 43.583 2.71289C43.734 2.71289 43.8283 2.73176 43.8849 2.7695V4.35469H43.8472C42.7715 4.16597 42.1488 4.6755 42.1488 5.84551V8.0157H40.3183V2.82612H42.0544V3.71307Z" fill="#EEEDED"/>
<path d="M44.0736 8.01567H45.8287C45.9041 8.24213 46.1306 8.44971 46.5646 8.44971C47.1496 8.44971 47.3572 8.09116 47.3572 7.54389V7.16647H47.3195C47.0364 7.50615 46.6401 7.75148 46.074 7.75148C44.9606 7.75148 43.9793 6.92114 43.9793 5.29822C43.9793 3.80739 44.7719 2.65625 45.9796 2.65625C46.6779 2.65625 47.093 2.93932 47.3761 3.37336H47.4138V2.80722H49.15V7.29857C49.15 8.1289 48.8669 8.77052 48.4329 9.14795C47.98 9.54424 47.3384 9.71408 46.6024 9.71408C45.2059 9.73295 44.2435 9.16682 44.0736 8.01567ZM47.4327 5.22273C47.4327 4.58111 47.1308 4.05272 46.6024 4.05272C46.0929 4.05272 45.772 4.50563 45.772 5.22273C45.772 5.92097 46.0929 6.41162 46.6024 6.41162C47.1119 6.41162 47.4327 5.9021 47.4327 5.22273Z" fill="#EEEDED"/>
</g>
<defs>
<clipPath id="clip0_1073_7012">
<rect width="48.65" height="8.9827" fill="white" transform="translate(0.5 0.75)"/>
</clipPath>
</defs>
</svg>
