<svg width="25" height="25" viewBox="0 0 25 25" fill="none" xmlns="http://www.w3.org/2000/svg">
<path d="M9.54163 6.25H6.83329C6.258 6.25 5.79163 6.71637 5.79163 7.29166V11.25C5.79163 11.8253 6.258 12.2917 6.83329 12.2917H9.54163C10.1169 12.2917 10.5833 11.8253 10.5833 11.25V7.29166C10.5833 6.71637 10.1169 6.25 9.54163 6.25Z" fill="#FFDD35"/>
<path d="M22.2504 10.8327C22.2504 10.1696 21.987 9.53375 21.5182 9.06491C21.0493 8.59608 20.4134 8.33268 19.7504 8.33268H18.0837V4.58269C18.0837 4.14066 17.9081 3.71674 17.5956 3.40418C17.283 3.09162 16.8591 2.91602 16.4171 2.91602H3.91704C3.47501 2.91602 3.05109 3.09162 2.73853 3.40418C2.42596 3.71674 2.25037 4.14066 2.25037 4.58269V19.166C2.25037 19.9396 2.55766 20.6814 3.10464 21.2284C3.65162 21.7754 4.39349 22.0827 5.16704 22.0827H19.3337C20.1073 22.0827 20.8491 21.7754 21.3961 21.2284C21.9431 20.6814 22.2504 19.9396 22.2504 19.166V10.8327ZM5.16704 20.416C4.83552 20.416 4.51757 20.2843 4.28315 20.0499C4.04873 19.8155 3.91704 19.4975 3.91704 19.166V4.99936C3.91704 4.88885 3.96094 4.78287 4.03908 4.70473C4.11722 4.62659 4.2232 4.58269 4.3337 4.58269H16.0004C16.1109 4.58269 16.2169 4.62659 16.295 4.70473C16.3732 4.78287 16.4171 4.88885 16.4171 4.99936V19.166C16.4172 19.4106 16.448 19.6541 16.5087 19.891C16.5257 19.9537 16.5277 20.0196 16.5147 20.0832C16.5017 20.1469 16.474 20.2066 16.4337 20.2577C16.3954 20.3072 16.3461 20.3473 16.2897 20.3748C16.2333 20.4022 16.1714 20.4163 16.1087 20.416H5.16704ZM20.5837 19.166C20.5837 19.4975 20.452 19.8155 20.2176 20.0499C19.9832 20.2843 19.6653 20.416 19.3337 20.416C19.0022 20.416 18.6843 20.2843 18.4498 20.0499C18.2154 19.8155 18.0837 19.4975 18.0837 19.166V10.416C18.0837 10.3055 18.1276 10.1995 18.2058 10.1214C18.2839 10.0433 18.3899 9.99935 18.5004 9.99935H19.7504C19.9714 9.99935 20.1834 10.0871 20.3397 10.2434C20.4959 10.3997 20.5837 10.6117 20.5837 10.8327V19.166Z" fill="#FFDD35"/>
<path d="M14.5416 7.53906H12.8749C12.5297 7.53906 12.2499 7.81889 12.2499 8.16406V8.58073C12.2499 8.92591 12.5297 9.20573 12.8749 9.20573H14.5416C14.8867 9.20573 15.1666 8.92591 15.1666 8.58073V8.16406C15.1666 7.81889 14.8867 7.53906 14.5416 7.53906Z" fill="#FFDD35"/>
<path d="M14.5416 10.873H12.8749C12.5297 10.873 12.2499 11.1529 12.2499 11.498V11.9147C12.2499 12.2599 12.5297 12.5397 12.8749 12.5397H14.5416C14.8867 12.5397 15.1666 12.2599 15.1666 11.9147V11.498C15.1666 11.1529 14.8867 10.873 14.5416 10.873Z" fill="#FFDD35"/>
<path d="M14.5416 14.207H6.20825C5.86308 14.207 5.58325 14.4868 5.58325 14.832V15.2486C5.58325 15.5938 5.86308 15.8736 6.20825 15.8736H14.5416C14.8867 15.8736 15.1666 15.5938 15.1666 15.2486V14.832C15.1666 14.4868 14.8867 14.207 14.5416 14.207Z" fill="#FFDD35"/>
<path d="M12.4582 17.541H6.20825C5.86308 17.541 5.58325 17.8208 5.58325 18.166V18.5827C5.58325 18.9278 5.86308 19.2077 6.20825 19.2077H12.4582C12.8034 19.2077 13.0832 18.9278 13.0832 18.5827V18.166C13.0832 17.8208 12.8034 17.541 12.4582 17.541Z" fill="#FFDD35"/>
</svg>
