<svg width="24" height="24" viewBox="0 0 24 24" fill="none" xmlns="http://www.w3.org/2000/svg">
<path fill-rule="evenodd" clip-rule="evenodd" d="M5.83333 3.5C4.54467 3.5 3.5 4.54467 3.5 5.83333C3.5 6.74333 4.02093 7.53166 4.78085 7.91638C4.81051 7.92833 4.83971 7.94231 4.86827 7.95836C5.16238 8.09215 5.48916 8.16667 5.83333 8.16667C7.122 8.16667 8.16667 7.122 8.16667 5.83333C8.16667 4.54467 7.122 3.5 5.83333 3.5ZM7.24222 9.39947C8.66219 8.83802 9.66667 7.45298 9.66667 5.83333C9.66667 3.71624 7.95042 2 5.83333 2C3.71624 2 2 3.71624 2 5.83333C2 7.35198 2.88311 8.66437 4.1638 9.28497L8.62975 11.997L4.11218 14.7381C4.10551 14.7422 4.09893 14.7463 4.09244 14.7505C2.85042 15.3847 2 16.6764 2 18.1667C2 20.2838 3.71624 22 5.83333 22C7.95042 22 9.66667 20.2838 9.66667 18.1667C9.66667 16.5443 8.65885 15.1574 7.23514 14.5977L10.075 12.8746L20.8606 19.4244C21.2147 19.6394 21.676 19.5267 21.891 19.1726C22.106 18.8186 21.9932 18.3573 21.6392 18.1423L11.5205 11.9975L21.639 5.85786C21.9931 5.64299 22.106 5.18173 21.8911 4.82761C21.6762 4.47348 21.215 4.3606 20.8608 4.57547L10.0753 11.1199L7.24222 9.39947ZM5.83333 15.8333C4.54467 15.8333 3.5 16.878 3.5 18.1667C3.5 19.4553 4.54467 20.5 5.83333 20.5C7.122 20.5 8.16667 19.4553 8.16667 18.1667C8.16667 16.878 7.122 15.8333 5.83333 15.8333Z" fill="#006FB9"/>
</svg>
